<svg id="レイヤー_1" data-name="レイヤー 1" xmlns="http://www.w3.org/2000/svg" viewBox="0 0 1057 407"><defs><style>.cls-1{fill:#599999;}.cls-2{fill:#fff;}</style></defs><rect class="cls-1" width="1057" height="407"/><rect class="cls-2" x="57.5" y="229" width="645" height="119"/><path class="cls-2" d="M237.08,246.53a10.07,10.07,0,0,1-5.17-1.32,9.18,9.18,0,0,1-3.55-3.63,10.9,10.9,0,0,1-1.29-5.38,10.3,10.3,0,0,1,3-7.3,9.8,9.8,0,0,1,3.26-2.17,10.52,10.52,0,0,1,4-.77,9.84,9.84,0,0,1,4.12.9,8.24,8.24,0,0,1,3.18,2.41L242,232.15a8.32,8.32,0,0,0-2.2-1.68,5.47,5.47,0,0,0-2.54-.6,5.8,5.8,0,0,0-5.19,3,6.74,6.74,0,0,0-.8,3.32,6.89,6.89,0,0,0,.79,3.38,5.4,5.4,0,0,0,2.22,2.22,6.78,6.78,0,0,0,3.33.79,6.15,6.15,0,0,0,2.62-.57,7,7,0,0,0,2.11-1.49l2,3.23a6.86,6.86,0,0,1-1.86,1.4,11.8,11.8,0,0,1-2.58,1A11.46,11.46,0,0,1,237.08,246.53Z" transform="translate(-154.5 -36)"/><path class="cls-2" d="M254.43,246.53a8.19,8.19,0,0,1-4.11-1,7.31,7.31,0,0,1-2.82-2.78,8.42,8.42,0,0,1,0-8.07,7.31,7.31,0,0,1,2.82-2.78,8.18,8.18,0,0,1,4.11-1,8.06,8.06,0,0,1,4.05,1,7.31,7.31,0,0,1,2.82,2.78,8.42,8.42,0,0,1,0,8.07,7.31,7.31,0,0,1-2.82,2.78A8.07,8.07,0,0,1,254.43,246.53Zm0-3.4a3.71,3.71,0,0,0,2.05-.58,3.88,3.88,0,0,0,1.41-1.59,4.91,4.91,0,0,0,.5-2.28,5,5,0,0,0-.5-2.28,3.78,3.78,0,0,0-3.46-2.14,3.88,3.88,0,0,0-2.09.57,3.93,3.93,0,0,0-1.42,1.57,5,5,0,0,0-.51,2.28,4.91,4.91,0,0,0,.51,2.28,4.05,4.05,0,0,0,1.42,1.59A3.8,3.8,0,0,0,254.43,243.13Z" transform="translate(-154.5 -36)"/><path class="cls-2" d="M270.17,246.24l-6.33-15.06h4.28l3.68,10.15,3.82-10.15h4.17l-6.65,15.06Z" transform="translate(-154.5 -36)"/><path class="cls-2" d="M284.66,228a2.59,2.59,0,0,1-1.78-.57,2,2,0,0,1-.64-1.57,2.05,2.05,0,0,1,.64-1.57,3,3,0,0,1,3.55,0,2.07,2.07,0,0,1,.63,1.6,2,2,0,0,1-.64,1.54A2.47,2.47,0,0,1,284.66,228Zm-1.94,18.2V231.18h3.91v15.06Z" transform="translate(-154.5 -36)"/><path class="cls-2" d="M297,246.53a6.42,6.42,0,0,1-3.57-1,7,7,0,0,1-2.46-2.78,9.5,9.5,0,0,1,0-8.07,7,7,0,0,1,2.46-2.78,6.42,6.42,0,0,1,3.57-1,6.49,6.49,0,0,1,2.61.54,5.56,5.56,0,0,1,2,1.4v-7.68h3.91v21.11h-3.71l-.06-1.8a5.78,5.78,0,0,1-2,1.49A6.41,6.41,0,0,1,297,246.53Zm.86-3.26a3.53,3.53,0,0,0,2.82-1.27,5.6,5.6,0,0,0,0-6.61,3.78,3.78,0,0,0-5.65,0,5.6,5.6,0,0,0,0,6.61A3.53,3.53,0,0,0,297.82,243.27Z" transform="translate(-154.5 -36)"/><path class="cls-2" d="M308.88,239.88v-3.65H318v3.65Z" transform="translate(-154.5 -36)"/><path class="cls-2" d="M322.18,246.24V242.5h3.45V230.92l-3.08,1.51-.83-3.65,5.53-2.79h2.43V242.5h3.54v3.74Z" transform="translate(-154.5 -36)"/><path class="cls-2" d="M341,246.24l-.11-.28,3.48-7.16a5.67,5.67,0,0,1-2.65.71,5.43,5.43,0,0,1-3-.89,6.54,6.54,0,0,1-2.19-2.33,6.23,6.23,0,0,1-.83-3.17,7.34,7.34,0,0,1,.95-3.71,7.35,7.35,0,0,1,12.51-.17,6.27,6.27,0,0,1,1,3.42,10.37,10.37,0,0,1-.3,2.44,19,19,0,0,1-.91,2.74c-.41,1-.93,2.14-1.55,3.44l-2.49,5Zm1.66-10.15a3.3,3.3,0,0,0,2.44-1,3.22,3.22,0,0,0,.95-2.35,3.37,3.37,0,0,0-.94-2.44,3.15,3.15,0,0,0-2.39-1,3.06,3.06,0,0,0-2.3.94,3.46,3.46,0,0,0-.9,2.49,3.19,3.19,0,0,0,.43,1.61,3.53,3.53,0,0,0,1.14,1.23A2.81,2.81,0,0,0,342.63,236.09Z" transform="translate(-154.5 -36)"/><path class="cls-2" d="M367.93,246.24l-8-20h4.39l4.23,11c.32.81.58,1.51.78,2.08s.39,1.11.56,1.62c.15-.53.33-1.08.53-1.65l.72-2.05,4-11h4.39l-8.05,20Z" transform="translate(-154.5 -36)"/><path class="cls-2" d="M387.64,246.53a5.94,5.94,0,0,1-3.39-1,7.33,7.33,0,0,1-2.41-2.8,9.52,9.52,0,0,1,0-8.08,7,7,0,0,1,2.45-2.76,6.42,6.42,0,0,1,3.52-1,5.82,5.82,0,0,1,2.8.64,5.27,5.27,0,0,1,1.91,1.67v-2h3.88v15.06h-3.91v-2a6.35,6.35,0,0,1-2.07,1.65A5.91,5.91,0,0,1,387.64,246.53Zm1.06-3.4a3.6,3.6,0,0,0,2.82-1.22,5.32,5.32,0,0,0,0-6.45,3.57,3.57,0,0,0-2.82-1.23,3.51,3.51,0,0,0-2.78,1.23,5.4,5.4,0,0,0,0,6.45A3.53,3.53,0,0,0,388.7,243.13Z" transform="translate(-154.5 -36)"/><path class="cls-2" d="M407,246.53a7.29,7.29,0,0,1-6.51-3.83,8.6,8.6,0,0,1,0-8,7.26,7.26,0,0,1,6.51-3.82,8.93,8.93,0,0,1,3.7.74,6.18,6.18,0,0,1,2.61,2.08l-2.14,2.57a4.84,4.84,0,0,0-1.66-1.41,4.35,4.35,0,0,0-2.14-.59,3.91,3.91,0,0,0-2.12.59,4.05,4.05,0,0,0-1.46,1.58,4.75,4.75,0,0,0-.52,2.25,4.69,4.69,0,0,0,.54,2.26,4.17,4.17,0,0,0,1.48,1.58,3.92,3.92,0,0,0,2.11.58,4.27,4.27,0,0,0,2.06-.5,5.9,5.9,0,0,0,1.71-1.41l2.14,2.57a6.7,6.7,0,0,1-2.68,2A9,9,0,0,1,407,246.53Z" transform="translate(-154.5 -36)"/><path class="cls-2" d="M422.42,246.53a7.31,7.31,0,0,1-3.84-1,7.43,7.43,0,0,1-2.68-2.8,8.6,8.6,0,0,1,0-8,7.43,7.43,0,0,1,2.68-2.8,7.3,7.3,0,0,1,3.84-1,8.88,8.88,0,0,1,3.69.74,6.18,6.18,0,0,1,2.61,2.08l-2.14,2.57a4.9,4.9,0,0,0-1.65-1.41,4.4,4.4,0,0,0-2.14-.59,4,4,0,0,0-3.58,2.17,5,5,0,0,0,0,4.51,4.24,4.24,0,0,0,1.48,1.58,3.92,3.92,0,0,0,2.11.58,4.24,4.24,0,0,0,2.06-.5,5.65,5.65,0,0,0,1.71-1.41l2.14,2.57a6.7,6.7,0,0,1-2.68,2A8.93,8.93,0,0,1,422.42,246.53Z" transform="translate(-154.5 -36)"/><path class="cls-2" d="M433.68,228a2.59,2.59,0,0,1-1.78-.57,2,2,0,0,1-.64-1.57,2.05,2.05,0,0,1,.64-1.57,2.51,2.51,0,0,1,1.78-.6,2.55,2.55,0,0,1,1.77.57,2.07,2.07,0,0,1,.63,1.6,2,2,0,0,1-.64,1.54A2.49,2.49,0,0,1,433.68,228Zm-1.94,18.2V231.18h3.91v15.06Z" transform="translate(-154.5 -36)"/><path class="cls-2" d="M440,246.24V231.18h3.76l.06,2a5.91,5.91,0,0,1,2.05-1.68,5.79,5.79,0,0,1,2.68-.65q5.19,0,5.19,6.16v9.21h-3.87v-8.93c0-2.15-.91-3.18-2.71-3.11a3.3,3.3,0,0,0-2.33.86,2.75,2.75,0,0,0-.93,2.11v9.07Z" transform="translate(-154.5 -36)"/><path class="cls-2" d="M463.32,246.53a5.92,5.92,0,0,1-3.39-1,7.25,7.25,0,0,1-2.41-2.8,9.52,9.52,0,0,1,0-8.08,6.92,6.92,0,0,1,2.45-2.76,6.42,6.42,0,0,1,3.52-1,5.82,5.82,0,0,1,2.8.64,5.35,5.35,0,0,1,1.91,1.67v-2h3.88v15.06h-3.91v-2a6.35,6.35,0,0,1-2.07,1.65A5.91,5.91,0,0,1,463.32,246.53Zm1.06-3.4a3.6,3.6,0,0,0,2.82-1.22,5.36,5.36,0,0,0,0-6.45,3.81,3.81,0,0,0-5.61,0,5.44,5.44,0,0,0,0,6.45A3.56,3.56,0,0,0,464.38,243.13Z" transform="translate(-154.5 -36)"/><path class="cls-2" d="M477.64,246.24V234.69h-2.85v-3.51h2.85v-3.85h3.88v3.85h3.17v3.51h-3.17v11.55Z" transform="translate(-154.5 -36)"/><path class="cls-2" d="M489.68,228a2.57,2.57,0,0,1-1.78-.57,2,2,0,0,1-.65-1.57,2.06,2.06,0,0,1,.65-1.57,2.49,2.49,0,0,1,1.78-.6,2.55,2.55,0,0,1,1.77.57,2.07,2.07,0,0,1,.62,1.6,2,2,0,0,1-.64,1.54A2.45,2.45,0,0,1,489.68,228Zm-1.94,18.2V231.18h3.91v15.06Z" transform="translate(-154.5 -36)"/><path class="cls-2" d="M503,246.53a8.19,8.19,0,0,1-4.11-1,7.31,7.31,0,0,1-2.82-2.78,8.42,8.42,0,0,1,0-8.07,7.31,7.31,0,0,1,2.82-2.78,8.18,8.18,0,0,1,4.11-1,8.06,8.06,0,0,1,4.05,1,7.41,7.41,0,0,1,2.83,2.78,8.49,8.49,0,0,1,0,8.07,7.41,7.41,0,0,1-2.83,2.78A8.07,8.07,0,0,1,503,246.53Zm0-3.4a3.69,3.69,0,0,0,2.05-.58,4,4,0,0,0,1.42-1.59,5,5,0,0,0,.5-2.28,5.09,5.09,0,0,0-.5-2.28,3.86,3.86,0,0,0-1.42-1.57,3.77,3.77,0,0,0-2.05-.57,3.84,3.84,0,0,0-3.51,2.14,5,5,0,0,0-.51,2.28,4.91,4.91,0,0,0,.51,2.28,4,4,0,0,0,1.43,1.59A3.77,3.77,0,0,0,503,243.13Z" transform="translate(-154.5 -36)"/><path class="cls-2" d="M514,246.24V231.18h3.77l0,2a5.94,5.94,0,0,1,2.06-1.68,5.76,5.76,0,0,1,2.68-.65q5.19,0,5.19,6.16v9.21h-3.88v-8.93c0-2.15-.9-3.18-2.71-3.11a3.3,3.3,0,0,0-2.32.86,2.75,2.75,0,0,0-.93,2.11v9.07Z" transform="translate(-154.5 -36)"/><path class="cls-2" d="M541.4,250.86a11.71,11.71,0,0,1-5.72-1.31,9,9,0,0,1-3.67-3.68,11.44,11.44,0,0,1-1.28-5.51,14.64,14.64,0,0,1,1.18-6,13.14,13.14,0,0,1,3.28-4.54,14.76,14.76,0,0,1,4.88-2.85,17.85,17.85,0,0,1,5.95-1,11.58,11.58,0,0,1,5.26,1.12,8.44,8.44,0,0,1,3.47,3.16,8.91,8.91,0,0,1,1.22,4.67,12.4,12.4,0,0,1-.55,3.74,10.61,10.61,0,0,1-1.56,3.14,7.73,7.73,0,0,1-2.32,2.15,5.49,5.49,0,0,1-2.87.79,4.14,4.14,0,0,1-2.47-.7,2.54,2.54,0,0,1-1.1-1.87,4.72,4.72,0,0,1-4.22,2.57,4,4,0,0,1-2.25-.67,4.56,4.56,0,0,1-1.57-1.86,6.25,6.25,0,0,1-.57-2.75,8.32,8.32,0,0,1,.5-2.77,9.08,9.08,0,0,1,1.43-2.58,7.49,7.49,0,0,1,2.18-1.91,5.45,5.45,0,0,1,2.76-.73,2.79,2.79,0,0,1,1.74.59,3.58,3.58,0,0,1,1.17,1.55l.35-1.82h3.59l-1.6,8.93a1.13,1.13,0,0,0,.26,1.07,1.32,1.32,0,0,0,.88.32,2.57,2.57,0,0,0,2-1,6.91,6.91,0,0,0,1.38-2.56,11.54,11.54,0,0,0,.52-3.51,6.36,6.36,0,0,0-2.06-5,8.24,8.24,0,0,0-5.68-1.83,14.92,14.92,0,0,0-6.77,1.44,10.29,10.29,0,0,0-4.42,4.14,12.69,12.69,0,0,0-1.56,6.46,7.6,7.6,0,0,0,8.36,8.3,12.74,12.74,0,0,0,2.31-.18,8.94,8.94,0,0,0,1.86-.58c.59-.25,1.24-.57,2-.95l1.06,1.91a28.84,28.84,0,0,1-2.88,1.3,12.32,12.32,0,0,1-2.23.61A12.44,12.44,0,0,1,541.4,250.86Zm.45-9.1a2.84,2.84,0,0,0,1.64-.54,4.76,4.76,0,0,0,1.34-1.41,4.94,4.94,0,0,0,.73-1.87c.06-.3.1-.57.13-.8a5,5,0,0,0,0-.65,2.17,2.17,0,0,0-.5-1.53,1.87,1.87,0,0,0-1.47-.56,2.62,2.62,0,0,0-1.79.73A5,5,0,0,0,540.7,237a6.31,6.31,0,0,0-.47,2.44,2.84,2.84,0,0,0,.44,1.7A1.38,1.38,0,0,0,541.85,241.76Z" transform="translate(-154.5 -36)"/><path class="cls-2" d="M564.5,246.53a7,7,0,0,1-3.69-1,6.51,6.51,0,0,1-2.44-2.63l2.42-2.54a7.24,7.24,0,0,0,1.73,1.86,3,3,0,0,0,1.67.48,2.6,2.6,0,0,0,2-.84,3.08,3.08,0,0,0,.77-2.18v-9.79h-3.65v-3.65h10.76v3.65H571v10.25a6.38,6.38,0,0,1-.85,3.32,5.85,5.85,0,0,1-2.31,2.24A6.91,6.91,0,0,1,564.5,246.53Z" transform="translate(-154.5 -36)"/><path class="cls-2" d="M583.5,246.53a5.92,5.92,0,0,1-3.39-1,7.25,7.25,0,0,1-2.41-2.8,9.52,9.52,0,0,1,0-8.08,6.92,6.92,0,0,1,2.45-2.76,6.42,6.42,0,0,1,3.52-1,5.82,5.82,0,0,1,2.8.64,5.35,5.35,0,0,1,1.91,1.67v-2h3.88v15.06h-3.91v-2a6.35,6.35,0,0,1-2.07,1.65A5.91,5.91,0,0,1,583.5,246.53Zm1.06-3.4a3.6,3.6,0,0,0,2.82-1.22,5.36,5.36,0,0,0,0-6.45,3.81,3.81,0,0,0-5.61,0,5.44,5.44,0,0,0,0,6.45A3.56,3.56,0,0,0,584.56,243.13Z" transform="translate(-154.5 -36)"/><path class="cls-2" d="M596.31,252.52V231.18h3.76l.06,1.82a5.74,5.74,0,0,1,2-1.51,6.31,6.31,0,0,1,2.71-.6,6.37,6.37,0,0,1,3.51,1,7,7,0,0,1,2.42,2.77,9.62,9.62,0,0,1,0,8,7.09,7.09,0,0,1-2.42,2.79,6.3,6.3,0,0,1-3.51,1,6.37,6.37,0,0,1-2.6-.56,5.79,5.79,0,0,1-2-1.41v8Zm7.7-9.39a3.59,3.59,0,0,0,2.83-1.24,5.27,5.27,0,0,0,0-6.39,3.85,3.85,0,0,0-5.65,0,4.59,4.59,0,0,0-1.09,3.19,4.68,4.68,0,0,0,1.09,3.21A3.55,3.55,0,0,0,604,243.13Z" transform="translate(-154.5 -36)"/><path class="cls-2" d="M620.44,246.53a5.92,5.92,0,0,1-3.39-1,7.33,7.33,0,0,1-2.41-2.8,9.52,9.52,0,0,1,0-8.08,7,7,0,0,1,2.45-2.76,6.42,6.42,0,0,1,3.52-1,5.82,5.82,0,0,1,2.8.64,5.35,5.35,0,0,1,1.91,1.67v-2h3.88v15.06h-3.91v-2a6.35,6.35,0,0,1-2.07,1.65A5.91,5.91,0,0,1,620.44,246.53Zm1.06-3.4a3.6,3.6,0,0,0,2.82-1.22,5.32,5.32,0,0,0,0-6.45,3.57,3.57,0,0,0-2.82-1.23,3.51,3.51,0,0,0-2.78,1.23,5.4,5.4,0,0,0,0,6.45A3.53,3.53,0,0,0,621.5,243.13Z" transform="translate(-154.5 -36)"/><path class="cls-2" d="M633.25,246.24V231.18H637l.05,2a5.94,5.94,0,0,1,2.06-1.68,5.76,5.76,0,0,1,2.68-.65q5.19,0,5.19,6.16v9.21h-3.88v-8.93c0-2.15-.9-3.18-2.71-3.11a3.32,3.32,0,0,0-2.33.86,2.77,2.77,0,0,0-.92,2.11v9.07Z" transform="translate(-154.5 -36)"/><path class="cls-2" d="M668.91,246.53a10.47,10.47,0,0,1-4-.77,9.51,9.51,0,0,1-3.21-2.16,9.7,9.7,0,0,1-2.11-3.26,11.57,11.57,0,0,1,0-8.25,9.7,9.7,0,0,1,2.11-3.26,9.51,9.51,0,0,1,3.21-2.16,11,11,0,0,1,8.07,0,9.74,9.74,0,0,1,3.21,2.17,10.21,10.21,0,0,1,2.11,3.28,11.48,11.48,0,0,1-.11,8.49,9.68,9.68,0,0,1-2.42,3.38l2.34,3.16-3,2.23-2.57-3.45A10.43,10.43,0,0,1,668.91,246.53Zm0-3.91a5.55,5.55,0,0,0,1-.09l-2.49-3.31,3.11-2.14,2.71,3.63a6.23,6.23,0,0,0,1.16-2,7.53,7.53,0,0,0,.41-2.5,7,7,0,0,0-.75-3.29,6,6,0,0,0-2.1-2.29,5.61,5.61,0,0,0-3.05-.84,5.75,5.75,0,0,0-3.08.83,5.64,5.64,0,0,0-2.1,2.28,7.61,7.61,0,0,0,0,6.63,5.68,5.68,0,0,0,2.1,2.27A5.75,5.75,0,0,0,668.91,242.62Z" transform="translate(-154.5 -36)"/><path class="cls-2" d="M687.53,246.53a4.89,4.89,0,0,1-3.89-1.62,6.49,6.49,0,0,1-1.41-4.43v-9.3h3.88v8.59a3.85,3.85,0,0,0,.78,2.55,2.68,2.68,0,0,0,2.16.93,3.13,3.13,0,0,0,2.26-.86,2.89,2.89,0,0,0,.9-2.2v-9h3.88v15.06h-3.71l-.08-2.11a5.77,5.77,0,0,1-2,1.74A5.85,5.85,0,0,1,687.53,246.53Z" transform="translate(-154.5 -36)"/><path class="cls-2" d="M707.3,246.53a8.81,8.81,0,0,1-4.25-1,7.34,7.34,0,0,1-2.84-2.74,7.83,7.83,0,0,1-1-4,8.38,8.38,0,0,1,1-4.13,7.32,7.32,0,0,1,2.71-2.81,7.64,7.64,0,0,1,4-1,6.8,6.8,0,0,1,6.15,3.65,7.56,7.56,0,0,1,.84,3.85l0,1.23H703a4,4,0,0,0,1.55,2.56,5.06,5.06,0,0,0,3.15.94,5.28,5.28,0,0,0,1.87-.31,6.51,6.51,0,0,0,1.81-1.11l1.88,2.62a8.56,8.56,0,0,1-2.81,1.67A9,9,0,0,1,707.3,246.53Zm-.4-12.33q-3.23,0-3.88,2.91h7.14V237a2.79,2.79,0,0,0-1-2A3.32,3.32,0,0,0,706.9,234.2Z" transform="translate(-154.5 -36)"/><path class="cls-2" d="M722,246.53a9.4,9.4,0,0,1-3.71-.69,6.42,6.42,0,0,1-2.63-1.94l2.46-2.08a4.88,4.88,0,0,0,1.94,1.35,6,6,0,0,0,2.19.42,2.33,2.33,0,0,0,1.43-.4,1.31,1.31,0,0,0,.54-1.11,1.18,1.18,0,0,0-.51-1,10.06,10.06,0,0,0-2.46-.86,8.43,8.43,0,0,1-4.08-2,4,4,0,0,1-1-2.83,3.64,3.64,0,0,1,.8-2.35,5.23,5.23,0,0,1,2.11-1.58,7,7,0,0,1,2.85-.57,9.09,9.09,0,0,1,3.34.62,7.54,7.54,0,0,1,2.62,1.71l-2.11,2.32a7.28,7.28,0,0,0-1.84-1.25,4.47,4.47,0,0,0-1.92-.49c-1.37,0-2.06.47-2.06,1.42a1.33,1.33,0,0,0,.63,1.09,10.15,10.15,0,0,0,2.6.94,8.08,8.08,0,0,1,3.82,1.88,3.68,3.68,0,0,1,1,2.65,4.06,4.06,0,0,1-.79,2.46,5.26,5.26,0,0,1-2.12,1.69A7.18,7.18,0,0,1,722,246.53Z" transform="translate(-154.5 -36)"/><path class="cls-2" d="M732.32,246.24V234.69h-2.85v-3.51h2.85v-3.85h3.88v3.85h3.17v3.51H736.2v11.55Z" transform="translate(-154.5 -36)"/><path class="cls-2" d="M743.5,246.24V234.69h-2.85v-3.51h2.85v-3.85h3.88v3.85h3.17v3.51h-3.17v11.55Z" transform="translate(-154.5 -36)"/><path class="cls-2" d="M755.54,228a2.59,2.59,0,0,1-1.78-.57,2,2,0,0,1-.64-1.57,2.05,2.05,0,0,1,.64-1.57,2.51,2.51,0,0,1,1.78-.6,2.55,2.55,0,0,1,1.77.57,2.07,2.07,0,0,1,.63,1.6,2,2,0,0,1-.65,1.54A2.45,2.45,0,0,1,755.54,228Zm-1.94,18.2V231.18h3.91v15.06Z" transform="translate(-154.5 -36)"/><path class="cls-2" d="M768.86,246.53a8.19,8.19,0,0,1-4.11-1,7.38,7.38,0,0,1-2.82-2.78,8.42,8.42,0,0,1,0-8.07,7.38,7.38,0,0,1,2.82-2.78,8.18,8.18,0,0,1,4.11-1,8.06,8.06,0,0,1,4,1,7.41,7.41,0,0,1,2.83,2.78,8.49,8.49,0,0,1,0,8.07,7.41,7.41,0,0,1-2.83,2.78A8.07,8.07,0,0,1,768.86,246.53Zm0-3.4a3.75,3.75,0,0,0,2.06-.58,4,4,0,0,0,1.41-1.59,5,5,0,0,0,.5-2.28,5.09,5.09,0,0,0-.5-2.28,3.91,3.91,0,0,0-1.41-1.57,4,4,0,0,0-4.14,0,4,4,0,0,0-1.43,1.57,5,5,0,0,0-.51,2.28,4.91,4.91,0,0,0,.51,2.28,4.08,4.08,0,0,0,1.43,1.59A3.77,3.77,0,0,0,768.86,243.13Z" transform="translate(-154.5 -36)"/><path class="cls-2" d="M779.84,246.24V231.18h3.77l.06,2a6.08,6.08,0,0,1,4.73-2.33q5.19,0,5.19,6.16v9.21h-3.88v-8.93c0-2.15-.9-3.18-2.71-3.11a3.3,3.3,0,0,0-2.32.86,2.75,2.75,0,0,0-.93,2.11v9.07Z" transform="translate(-154.5 -36)"/><path class="cls-2" d="M803.15,246.53a5.92,5.92,0,0,1-3.39-1,7.25,7.25,0,0,1-2.41-2.8,9.52,9.52,0,0,1,0-8.08,6.92,6.92,0,0,1,2.45-2.76,6.4,6.4,0,0,1,3.52-1,5.82,5.82,0,0,1,2.8.64,5.35,5.35,0,0,1,1.91,1.67v-2h3.88v15.06H808v-2a6.35,6.35,0,0,1-2.07,1.65A5.94,5.94,0,0,1,803.15,246.53Zm1.06-3.4a3.61,3.61,0,0,0,2.82-1.22,5.36,5.36,0,0,0,0-6.45,3.59,3.59,0,0,0-2.82-1.23,3.53,3.53,0,0,0-2.79,1.23,5.4,5.4,0,0,0,0,6.45A3.55,3.55,0,0,0,804.21,243.13Z" transform="translate(-154.5 -36)"/><path class="cls-2" d="M818.32,228a2.59,2.59,0,0,1-1.78-.57,2,2,0,0,1-.64-1.57,2.05,2.05,0,0,1,.64-1.57,3,3,0,0,1,3.55,0,2.07,2.07,0,0,1,.63,1.6,2,2,0,0,1-.64,1.54A2.47,2.47,0,0,1,818.32,228Zm-1.93,18.2V231.18h3.9v15.06Z" transform="translate(-154.5 -36)"/><path class="cls-2" d="M824.66,246.24V231.18h3.76l.06,2.48a6.14,6.14,0,0,1,1.95-2,4.66,4.66,0,0,1,2.56-.78,5.65,5.65,0,0,1,1,.07,4.06,4.06,0,0,1,.76.18l-1.06,4.28a3.08,3.08,0,0,0-.8-.28,4,4,0,0,0-1-.12,3.19,3.19,0,0,0-2.35,1,3.24,3.24,0,0,0-.95,2.41v7.87Z" transform="translate(-154.5 -36)"/><path class="cls-2" d="M844.14,246.53a8.78,8.78,0,0,1-4.25-1,7.27,7.27,0,0,1-2.84-2.74,7.83,7.83,0,0,1-1-4,8.49,8.49,0,0,1,1-4.13,7.46,7.46,0,0,1,2.71-2.81,7.68,7.68,0,0,1,4-1,6.8,6.8,0,0,1,6.15,3.65,7.56,7.56,0,0,1,.84,3.85l0,1.23H839.83a4,4,0,0,0,1.56,2.56,5.06,5.06,0,0,0,3.15.94,5.28,5.28,0,0,0,1.87-.31,6.65,6.65,0,0,0,1.81-1.11l1.88,2.62a8.66,8.66,0,0,1-2.81,1.67A9,9,0,0,1,844.14,246.53Zm-.4-12.33q-3.22,0-3.88,2.91H847V237a2.74,2.74,0,0,0-1-2A3.32,3.32,0,0,0,843.74,234.2Z" transform="translate(-154.5 -36)"/><path class="cls-2" d="M863,246.24v-20h13.4V230h-9.29v4.62h8.1v3.6h-8.1v8Z" transform="translate(-154.5 -36)"/><path class="cls-2" d="M882.17,228a2.62,2.62,0,0,1-1.79-.57,2,2,0,0,1-.64-1.57,2.09,2.09,0,0,1,.64-1.57,3,3,0,0,1,3.56,0,2.1,2.1,0,0,1,.62,1.6,2,2,0,0,1-.64,1.54A2.46,2.46,0,0,1,882.17,228Zm-1.94,18.2V231.18h3.9v15.06Z" transform="translate(-154.5 -36)"/><path class="cls-2" d="M888.56,246.24V225.13h3.88v21.11Z" transform="translate(-154.5 -36)"/><path class="cls-2" d="M896.6,246.24V225.13h3.88v21.11Z" transform="translate(-154.5 -36)"/><path class="cls-2" d="M907,228a2.59,2.59,0,0,1-1.78-.57,2,2,0,0,1-.64-1.57,2.05,2.05,0,0,1,.64-1.57,2.51,2.51,0,0,1,1.78-.6,2.55,2.55,0,0,1,1.77.57,2.07,2.07,0,0,1,.63,1.6,2,2,0,0,1-.64,1.54A2.47,2.47,0,0,1,907,228ZM905,246.24V231.18h3.91v15.06Z" transform="translate(-154.5 -36)"/><path class="cls-2" d="M913.29,246.24V231.18h3.76l.06,2a5.91,5.91,0,0,1,2-1.68,5.79,5.79,0,0,1,2.68-.65q5.2,0,5.2,6.16v9.21h-3.88v-8.93c0-2.15-.91-3.18-2.71-3.11a3.32,3.32,0,0,0-2.33.86,2.74,2.74,0,0,0-.92,2.11v9.07Z" transform="translate(-154.5 -36)"/><path class="cls-2" d="M937.76,252.8a11.49,11.49,0,0,1-3.46-.53,8.86,8.86,0,0,1-2.81-1.35l1.37-2.82a6.79,6.79,0,0,0,2.09,1,8.31,8.31,0,0,0,2.47.37q4.43,0,4.42-4.16v-1.17a5.49,5.49,0,0,1-2,1.53,6.21,6.21,0,0,1-2.67.61,7,7,0,0,1-3.72-1,6.87,6.87,0,0,1-2.58-2.71,8.07,8.07,0,0,1-.94-3.95,8.51,8.51,0,0,1,.92-4,7,7,0,0,1,2.56-2.77,6.87,6.87,0,0,1,3.65-1,6.52,6.52,0,0,1,2.81.61A6.61,6.61,0,0,1,942,233l0-1.77h3.74v13.95a7.43,7.43,0,0,1-2.13,5.68A8.21,8.21,0,0,1,937.76,252.8Zm.12-9.7a3.88,3.88,0,0,0,3-1.22,4.56,4.56,0,0,0,1.12-3.2,4.61,4.61,0,0,0-1.14-3.24,3.86,3.86,0,0,0-3-1.24,3.75,3.75,0,0,0-2.93,1.26,4.65,4.65,0,0,0-1.13,3.22,4.56,4.56,0,0,0,1.13,3.2A3.82,3.82,0,0,0,937.88,243.1Z" transform="translate(-154.5 -36)"/><path class="cls-2" d="M965.46,246.53a10.28,10.28,0,0,1-4.75-1,9.51,9.51,0,0,1-3.38-2.92l2.6-2.94a8.3,8.3,0,0,0,2.76,2.64,6.53,6.53,0,0,0,3,.7,4.27,4.27,0,0,0,2.27-.57,1.75,1.75,0,0,0,.92-1.54,2,2,0,0,0-1.18-1.84,10,10,0,0,0-3-1,9.68,9.68,0,0,1-4.79-2.2,5.32,5.32,0,0,1-1.57-4,5,5,0,0,1,1-3.07,6.68,6.68,0,0,1,2.64-2.07,8.76,8.76,0,0,1,3.63-.74,9.62,9.62,0,0,1,4.41.9,6.91,6.91,0,0,1,2.78,2.55l-2.65,2.6a5.33,5.33,0,0,0-4.51-2.51,4,4,0,0,0-2.29.58,1.87,1.87,0,0,0,.14,3.24,8.51,8.51,0,0,0,2.72.94,12,12,0,0,1,5,2.1,4.65,4.65,0,0,1,1.84,3.87,5.83,5.83,0,0,1-3.61,5.6A9.7,9.7,0,0,1,965.46,246.53Z" transform="translate(-154.5 -36)"/><path class="cls-2" d="M981.61,246.53a4.9,4.9,0,0,1-3.9-1.62,6.49,6.49,0,0,1-1.41-4.43v-9.3h3.88v8.59a3.85,3.85,0,0,0,.78,2.55,2.69,2.69,0,0,0,2.16.93,3.17,3.17,0,0,0,2.27-.86,2.89,2.89,0,0,0,.89-2.2v-9h3.88v15.06h-3.7l-.09-2.11a5.6,5.6,0,0,1-2,1.74A5.81,5.81,0,0,1,981.61,246.53Z" transform="translate(-154.5 -36)"/><path class="cls-2" d="M994.24,252.52V231.18H998l.06,1.82a5.7,5.7,0,0,1,2-1.51,6.56,6.56,0,0,1,6.22.4,6.91,6.91,0,0,1,2.43,2.77,9.62,9.62,0,0,1,0,8,7,7,0,0,1-2.43,2.79,6.46,6.46,0,0,1-6.1.45,5.83,5.83,0,0,1-2-1.41v8Zm7.71-9.39a3.55,3.55,0,0,0,2.82-1.24,5.27,5.27,0,0,0,0-6.39,3.55,3.55,0,0,0-2.82-1.24,3.6,3.6,0,0,0-2.83,1.23,4.63,4.63,0,0,0-1.08,3.19,4.72,4.72,0,0,0,1.08,3.21A3.57,3.57,0,0,0,1002,243.13Z" transform="translate(-154.5 -36)"/><path class="cls-2" d="M1012.7,252.52V231.18h3.77l0,1.82a5.74,5.74,0,0,1,2-1.51,6.31,6.31,0,0,1,2.71-.6,6.37,6.37,0,0,1,3.51,1,7,7,0,0,1,2.42,2.77,9.52,9.52,0,0,1,0,8,7.09,7.09,0,0,1-2.42,2.79,6.3,6.3,0,0,1-3.51,1,6.37,6.37,0,0,1-2.6-.56,5.79,5.79,0,0,1-2-1.41v8Zm7.7-9.39a3.59,3.59,0,0,0,2.83-1.24,5.27,5.27,0,0,0,0-6.39,3.85,3.85,0,0,0-5.65,0,4.64,4.64,0,0,0-1.09,3.19,4.73,4.73,0,0,0,1.09,3.21A3.55,3.55,0,0,0,1020.4,243.13Z" transform="translate(-154.5 -36)"/><path class="cls-2" d="M1038.15,246.53a8.16,8.16,0,0,1-4.11-1,7.41,7.41,0,0,1-2.83-2.78,8.49,8.49,0,0,1,0-8.07,7.41,7.41,0,0,1,2.83-2.78,8.16,8.16,0,0,1,4.11-1,8.06,8.06,0,0,1,4,1,7.45,7.45,0,0,1,2.82,2.78,8.42,8.42,0,0,1,0,8.07,7.45,7.45,0,0,1-2.82,2.78A8.07,8.07,0,0,1,1038.15,246.53Zm0-3.4a3.71,3.71,0,0,0,2-.58,3.88,3.88,0,0,0,1.41-1.59,5,5,0,0,0,.5-2.28,5.09,5.09,0,0,0-.5-2.28,3.78,3.78,0,0,0-3.46-2.14,3.81,3.81,0,0,0-3.51,2.14,4.85,4.85,0,0,0-.52,2.28,4.79,4.79,0,0,0,.52,2.28,4,4,0,0,0,1.42,1.59A3.78,3.78,0,0,0,1038.15,243.13Z" transform="translate(-154.5 -36)"/><path class="cls-2" d="M1049.13,246.24V231.18h3.76l.06,2.48a6.14,6.14,0,0,1,2-2,4.66,4.66,0,0,1,2.56-.78,5.65,5.65,0,0,1,1,.07,4.06,4.06,0,0,1,.76.18l-1.06,4.28a3.08,3.08,0,0,0-.8-.28,4,4,0,0,0-1-.12,3.19,3.19,0,0,0-2.35,1,3.24,3.24,0,0,0-1,2.41v7.87Z" transform="translate(-154.5 -36)"/><path class="cls-2" d="M1063,246.24V234.69h-2.85v-3.51H1063v-3.85h3.88v3.85H1070v3.51h-3.17v11.55Z" transform="translate(-154.5 -36)"/><path class="cls-2" d="M1086,246.24V230h-5.79v-3.74h15.86V230h-6v16.23Z" transform="translate(-154.5 -36)"/><path class="cls-2" d="M1106,246.53a8.19,8.19,0,0,1-4.11-1,7.31,7.31,0,0,1-2.82-2.78,8.42,8.42,0,0,1,0-8.07,7.31,7.31,0,0,1,2.82-2.78,8.18,8.18,0,0,1,4.11-1,8.06,8.06,0,0,1,4,1,7.31,7.31,0,0,1,2.82,2.78,8.42,8.42,0,0,1,0,8.07,7.31,7.31,0,0,1-2.82,2.78A8.07,8.07,0,0,1,1106,246.53Zm0-3.4a3.71,3.71,0,0,0,2-.58,3.88,3.88,0,0,0,1.41-1.59,4.91,4.91,0,0,0,.5-2.28,5,5,0,0,0-.5-2.28,3.78,3.78,0,0,0-3.46-2.14,3.88,3.88,0,0,0-2.09.57,3.93,3.93,0,0,0-1.42,1.57,5,5,0,0,0-.51,2.28,4.91,4.91,0,0,0,.51,2.28,4.05,4.05,0,0,0,1.42,1.59A3.8,3.8,0,0,0,1106,243.13Z" transform="translate(-154.5 -36)"/><path class="cls-2" d="M1124,246.53a8.19,8.19,0,0,1-4.11-1,7.31,7.31,0,0,1-2.82-2.78,8.42,8.42,0,0,1,0-8.07,7.31,7.31,0,0,1,2.82-2.78,8.18,8.18,0,0,1,4.11-1,8.06,8.06,0,0,1,4,1,7.31,7.31,0,0,1,2.82,2.78,8.42,8.42,0,0,1,0,8.07,7.31,7.31,0,0,1-2.82,2.78A8.07,8.07,0,0,1,1124,246.53Zm0-3.4a3.71,3.71,0,0,0,2-.58,4,4,0,0,0,1.42-1.59,5,5,0,0,0,.49-2.28,5.09,5.09,0,0,0-.49-2.28,3.86,3.86,0,0,0-1.42-1.57,4,4,0,0,0-4.13,0,3.88,3.88,0,0,0-1.43,1.57,5,5,0,0,0-.51,2.28,4.91,4.91,0,0,0,.51,2.28,4,4,0,0,0,1.43,1.59A3.74,3.74,0,0,0,1124,243.13Z" transform="translate(-154.5 -36)"/><path class="cls-2" d="M1135.05,246.24V225.13h3.88v21.11Z" transform="translate(-154.5 -36)"/><path class="cls-2" d="M509.19,94.49l-3.5,3.64-2.86-4.59c-.17-.34-.52-.34-.52.09v9h-4.54V91.12h-.44c-.47,4.63-1.9,6.36-5.36,10l-2.69-4.63A31.53,31.53,0,0,0,496.34,88h-6.28V83.5h7.75V80.13h-7.75V75.71h4.29a31.75,31.75,0,0,0-1.56-4.58l2.47-1h-4.42V65.72h6.8V62.43h4.63v3.29h7.05v4.45h-4.5l2.64.87a38.61,38.61,0,0,1-1.56,4.67H510v4.42h-7.66V83.5H510V88h-7.66v3h.3l1.26-1.17c.95-.87,1.69-.61,2.51.47ZM496.81,70.17A25.25,25.25,0,0,1,498.46,75l-2.17.73h5.41a34.18,34.18,0,0,0,1.56-5.54Zm33.5,5.46v4.89h-4.59v21.94h-4.93V80.52h-4.16c-.17,9.39-1.34,15.92-5,22.28l-4.15-4c3.29-5.28,4.24-10.56,4.24-20.47V66c5.76-.65,11.08-1.43,15.45-3.12l2.94,4.63a72.57,72.57,0,0,1-13.46,2.73v5.41Z" transform="translate(-154.5 -36)"/><path class="cls-2" d="M555.46,97h17.61v4.76H533.26V97h16.92V93.46H536.24V88.78h13.94V85.71h-3V77.18h-4.11a18,18,0,0,1-5.45,10.48l-4-3.51c2.59-2.38,3.85-4.33,4.41-7h-4.59v-4.5h4.89V68.23h-4.15V63.81h21.5v4.42h-3.63v4.45h4.11v4.5h-4.11v7.75h3.38v3.85h14.62v4.68H555.46ZM543.34,72.68h3.85V68.23h-3.85Zm19.47-8.52V79.91h-5V64.16ZM561.56,86.4l-1.21-4.59h6.53V63.12H572v18.3c0,3.25-1.26,5-4.54,5Z" transform="translate(-154.5 -36)"/><path class="cls-2" d="M605.61,99.25V96.4h-25.4V90.77h25.4V73.46H580.86V67.84h30.73V99.25Z" transform="translate(-154.5 -36)"/><path class="cls-2" d="M623.49,99.38V67.19H656V99.38h-5.89v-3.2H629.38v3.2Zm5.89-8.65h20.68V72.64H629.38Z" transform="translate(-154.5 -36)"/><path class="cls-2" d="M701.61,73.9v5.62H687.2v1c0,10.08-4,16.36-12.9,20.34l-3.25-5.19c7.84-3.38,10.26-7.84,10.26-15.15v-1h-16V73.9h16V64.38h5.89V73.9Z" transform="translate(-154.5 -36)"/><path class="cls-2" d="M709.75,67H742.5c0,18.74-5.53,28.86-22,33.63l-2.73-5.54c13.46-3.55,17.74-10.17,18.65-22.55H715.63v10h-5.88Z" transform="translate(-154.5 -36)"/><path class="cls-2" d="M785.78,69.35c-.65,16.14-9.95,27.48-25.74,31.72l-2.73-5.54c13.07-3.37,19.6-10.6,21.9-20.73H765.66a38.41,38.41,0,0,1-9.91,10L752,80A34,34,0,0,0,764.8,63.68l5.71,1.56a44.87,44.87,0,0,1-1.86,4.11Z" transform="translate(-154.5 -36)"/><path class="cls-2" d="M816.51,77.83h14.93v5.41H816.51c0,8.44-3.94,14.46-11.9,17.87l-3.24-5.06c6.66-2.85,9.39-6.71,9.39-12.81H795.09V77.83h15.67v-6.1c-3.72.3-7.75.52-12,.65L798.29,67c12.08-.39,21.47-1.25,28.57-2.85l1.81,5.23a109.77,109.77,0,0,1-12.16,1.86Z" transform="translate(-154.5 -36)"/><path class="cls-2" d="M852.78,78A80.52,80.52,0,0,0,840,70.74L843,65.41a95.39,95.39,0,0,1,13.2,7.4ZM840.84,93.2c15.1-2.64,22.2-8.66,27.74-22.25l5.32,3.38c-5.89,14.19-14.76,21.89-31.38,25Z" transform="translate(-154.5 -36)"/><path class="cls-2" d="M406,146.93H379.72v-8.22h30.11v5.09c7.59-6.1,11.58-11.89,13.61-17.76h10.09c3.05,7.12,9.78,13.93,19.71,21.59l-5.39,8.68c-10.56-8.21-17.76-15.48-19-24.48h-.78c-1.49,9.78-7.28,16.19-16.82,23.7ZM382.22,198V172H407.8v23.3H390.36V198Zm25.42-70.31v7.82H382.46v-7.82Zm-.55,22.37v7.82H382.85v-7.82Zm-24.24,18.77V161h24.24v7.82Zm7.51,10.64v8.13h9.38v-8.13Zm17.52,10.71c15.17-5.24,26.67-12.12,36.52-24.17l6.89,5.63c-10.64,13.14-22.84,20.73-39.42,27.07Zm1.48-15.64c11.42-4.23,21.67-11.27,28.55-20l6.34,5.24c-8,10-18.62,17.6-30.9,22.77ZM436.9,149c-5.95,8-12.91,13.53-22.69,18.23l-3.91-7.44A53.08,53.08,0,0,0,431,143.8Z" transform="translate(-154.5 -36)"/><path class="cls-2" d="M480.94,183.14a78,78,0,0,1-17.84,12.67l-4.85-6.8A68.18,68.18,0,0,0,475,178.37Zm-22.29-5.4v-7.58h70.63v7.58H499.55v9.7c0,6.57-3.44,9.7-10,9.7h-9.78l-1.95-7.9h12.28v-11.5Zm.07-50.13h70.56v7.58H506.91V139h18.61v17.68h-63.2V139h18.3v-3.76h-21.9ZM465,159.68h57.88V167H465Zm6.49-14.24v4.77h9.15v-4.77ZM498.22,139v-3.76h-9.07V139Zm-9.07,6.49v4.77h9.07v-4.77Zm21.74,32.85a112.62,112.62,0,0,1,18.23,11.19l-5.32,6.18a141.58,141.58,0,0,0-18.38-11.74Zm5.4-32.85h-9.38v4.77h9.38Z" transform="translate(-154.5 -36)"/><path class="cls-2" d="M562.6,168.59a166.31,166.31,0,0,0-23.46-9.38l3.83-9.78A150.57,150.57,0,0,1,566.82,159ZM543.13,184c26.75-3.83,41.14-14.86,51.7-40l9.7,6.26c-11,25.89-28,40.2-58.51,44.9Zm25.26-35.27a132.34,132.34,0,0,0-22.76-9.23l3.91-9.55a134,134,0,0,1,23.31,9.47Zm24-6.49c-1.72-4.7-3.6-9.42-5.63-13.62l6.24-2a131.73,131.73,0,0,1,5.71,13.63Zm11.92-.45a140.43,140.43,0,0,0-5.7-13.64l6.25-2a118,118,0,0,1,5.55,13.62Z" transform="translate(-154.5 -36)"/><path class="cls-2" d="M616,191.59v-9.07h22.14V156.39H618.57v-9.07h49.51v9.07H647.51v26.13h23.23v9.07Z" transform="translate(-154.5 -36)"/><path class="cls-2" d="M743.87,147.47c-4.93,7.59-12.51,13.85-21.43,18.85v29.34H712V171.49a147.67,147.67,0,0,1-24.8,8L683.8,170c20.18-4.3,38.79-12.75,48.34-21.82h-42V138.4H712V128h10.48v10.4h21.43Zm-13.45,16.27a162.57,162.57,0,0,1,21.35,7.75L748,181a160.85,160.85,0,0,0-21.51-7.82Z" transform="translate(-154.5 -36)"/><path class="cls-2" d="M771.57,193.31V131.13h10.79v51.54c14.47-2.81,28-12.2,36.92-28.86l8.37,6.73c-10.17,18.06-26.68,30-46.07,32.77Z" transform="translate(-154.5 -36)"/><path class="cls-2" d="M842.75,167.5V156.55h62.57V167.5Z" transform="translate(-154.5 -36)"/><path class="cls-2" d="M982.37,137.93c-1.17,29.65-18.22,50.22-47.48,57.73L930,185.8c11-2.74,19.48-6.8,25.89-12.28-4.61-3.83-10.32-8.13-15.56-11.81l6.41-7.27c5.79,3.91,11.11,7.74,16.19,11.65a47.24,47.24,0,0,0,8.14-18.62H945.37c-4.38,6.65-9.3,12.13-18.14,18.46l-6.65-8.44a61.41,61.41,0,0,0,23.07-29.57l10.17,2.82a77,77,0,0,1-3.28,7.19Z" transform="translate(-154.5 -36)"/><path class="cls-2" d="M999.19,167.5V156.55h62.58V167.5Z" transform="translate(-154.5 -36)"/><path class="cls-2" d="M374.63,153.58V160c-3.2,7.27-10.64,15.35-18.71,21.43l-5.84-6.48a57.85,57.85,0,0,0,14.07-13.27H344.08v26.22c0,7.2-3.19,10.08-10.31,10.08h-15l-1.92-8.56h18.31V161.66H302.19v-8.08h33.1c-5.84-3.36-11.91-6.39-17.51-9l5-6.24c4.55,2.08,10.23,5,15.91,8.08A52.79,52.79,0,0,0,355.36,136H308.82v-8.07h58.85v6.79c-4.72,6.8-12.23,12.56-20.71,16.63l3.6,2.24Z" transform="translate(-154.5 -36)"/><path class="cls-2" d="M492.85,39.65l3,.09-.61,11c-.17,3.25.95,4.4,3.19,4.4,2.84,0,4.66-1.65,5.83-6.59l2.86.85c-1.23,5.63-4.12,8.65-8.67,8.65-4.29,0-6.48-2.15-6.2-7.42Z" transform="translate(-154.5 -36)"/><path class="cls-2" d="M510.35,57.39c.68-2.19,1.61-4.9,2.3-6.94,1.37-4,2.86-7.59,4.27-11.36l2.89.95c-1.35,3.23-2.43,6-3.69,9.11l.2,0c.84-1.45,1.8-2.3,3.14-2.3,2.19,0,3.32,1.35,3.32,4.71,0,2.58.06,3.49,1.34,3.49s2.13-1.26,3-6l2.73.87c-1.09,5.59-2.78,8.11-6,8.11-2.77,0-3.86-1.48-3.86-5.19,0-2.86-.39-3.44-1.75-3.44s-2.45,1.08-3.13,2.92c-.73,2-1.28,3.67-2,5.88Z" transform="translate(-154.5 -36)"/><path class="cls-2" d="M540,43.88c3.21-.26,4.66,1.34,4.66,4.51,0,8.41-1.28,9.52-4.14,9.52a25.1,25.1,0,0,1-3.12-.29l.17-2.62a19.73,19.73,0,0,0,2.43.24c1.47,0,2-.56,2-7.11,0-1.19-.41-1.87-2.06-1.72l-1.54.13a72,72,0,0,1-3.68,11.56l-2.65-1a63.63,63.63,0,0,0,3.58-10.26l-3.32.31L532,44.55l4.21-.35c.32-1.43.65-3,1-4.66l2.58.41c-.28,1.43-.54,2.76-.82,4Zm9.11.45a32.35,32.35,0,0,1,2.47,7.48l-2.78.81a29.79,29.79,0,0,0-2.88-8.37l1.73-.76c-.45-.8-.93-1.59-1.41-2.3l1.63-.78a32.56,32.56,0,0,1,2.1,3.51Zm1.8-.82A33,33,0,0,0,548.84,40l1.65-.78a29.92,29.92,0,0,1,2,3.54Z" transform="translate(-154.5 -36)"/><path class="cls-2" d="M565.46,44.64c-1.3.15-2.89.26-4.49.32a72.85,72.85,0,0,1-3.43,12.79l-2.84-1a62.1,62.1,0,0,0,3.36-11.75c-1.3,0-2.49,0-3.42,0V42.49c1,0,2.4,0,3.86,0,.15-1.08.28-2.17.39-3.23l2.84.26c-.09.95-.22,1.91-.35,2.88,1.47-.06,2.86-.15,3.9-.28Zm7.28,12.68a40,40,0,0,1-5.42.41c-3.77,0-5.55-1.3-5.55-3.7a7.06,7.06,0,0,1,.93-3.43l2.43.76a5.47,5.47,0,0,0-.63,2.19c0,1,.87,1.45,2.91,1.45a30.56,30.56,0,0,0,5-.43Zm-9.39-11c3.15-.41,5-.6,8.48-.8l.15,2.67a72.59,72.59,0,0,0-8.32.82Z" transform="translate(-154.5 -36)"/><path class="cls-2" d="M376.29,121.84a25.61,25.61,0,0,0-5.73-3.58v.82c0,2.34-1.8,3.55-5,3.55-2.8,0-4.76-1.59-4.76-4s1.82-4.12,4.89-4.12a10.86,10.86,0,0,1,2.15.21V104.36h2.68v4.22c2.24,0,4.26,0,6-.12l0,2.59c-1.8.08-3.85.12-6.06.12v4.27a28.92,28.92,0,0,1,7.29,4Zm-8.41-4.5a9.49,9.49,0,0,0-2.3-.31c-1.29,0-1.94.63-1.94,1.54s.84,1.49,2.05,1.49c1.42,0,2.19-.44,2.19-1.51Z" transform="translate(-154.5 -36)"/><path class="cls-2" d="M384.92,104.59l2.91.08-.59,10.62c-.17,3.14.92,4.25,3.07,4.25,2.74,0,4.5-1.59,5.63-6.36l2.76.82c-1.19,5.43-4,8.34-8.36,8.34-4.14,0-6.25-2.07-6-7.15Z" transform="translate(-154.5 -36)"/><path class="cls-2" d="M401.79,121.69c.65-2.11,1.55-4.72,2.22-6.69,1.32-3.89,2.76-7.32,4.12-11l2.78.92c-1.3,3.11-2.34,5.81-3.56,8.78l.19,0c.82-1.4,1.74-2.22,3-2.22,2.11,0,3.2,1.3,3.2,4.54,0,2.49.06,3.36,1.3,3.36s2.05-1.21,2.9-5.81l2.64.84c-1.05,5.39-2.68,7.82-5.79,7.82-2.68,0-3.72-1.42-3.72-5,0-2.76-.38-3.32-1.7-3.32s-2.36,1-3,2.82c-.71,1.94-1.23,3.53-1.88,5.66Z" transform="translate(-154.5 -36)"/><path class="cls-2" d="M423.91,115.42A7.71,7.71,0,0,1,429,108v-.15h-5.37v-2.47h7.5l.19,2.35a8.59,8.59,0,0,0-1.36,1c-2.09,1.88-3.36,4-3.36,6.58s1.52,4.16,4.22,4.16c3.12,0,4.58-2.11,4.58-6.18a17.27,17.27,0,0,0-1.86-6.76l2.26-1.4a48.92,48.92,0,0,0,5.87,6.4l-1.78,1.9a29.91,29.91,0,0,1-3.61-4l-.15.08a10.44,10.44,0,0,1,1.8,5.56c0,4.19-2.68,7.11-7.13,7.11S423.91,119.7,423.91,115.42Z" transform="translate(-154.5 -36)"/><path class="cls-2" d="M458.49,122.3a20.92,20.92,0,0,0-4.66-2.91v.52c0,2-1.49,3-4.18,3-2.39,0-4-1.36-4-3.38,0-2.18,1.55-3.49,4.1-3.49a10.47,10.47,0,0,1,1.71.16v-8.55h2.37v3.49c1.86,0,3.51,0,4.95-.1l0,2.3c-1.5.06-3.17.1-5,.1v3.41a24.25,24.25,0,0,1,6,3.3Zm-7-3.75a8.22,8.22,0,0,0-1.84-.25c-1,0-1.54.44-1.54,1.19s.6,1.13,1.63,1.13c1.21,0,1.75-.35,1.75-1.15Z" transform="translate(-154.5 -36)"/><path class="cls-2" d="M466.08,110.94a37.63,37.63,0,0,1,8.9-1.48c3.77,0,5.94,1.86,5.94,5.31,0,4.29-3.26,6.52-10.16,7.5L470,119.6c5.87-.86,8-2.38,8-4.87,0-1.59-1-2.64-3.06-2.64a34.15,34.15,0,0,0-8.21,1.57Zm13-3a68.79,68.79,0,0,0-10.51-.71l.29-2.76a91,91,0,0,1,10.56.73Z" transform="translate(-154.5 -36)"/><path class="cls-1" d="M231.57,299.08a13.7,13.7,0,0,1-1.79,4.39l-2.69-2.18c1.52-1.91,1.77-3.51,1.77-7.85a52.17,52.17,0,0,0,10.26-.89l1.27,2.32a43.64,43.64,0,0,1-8.51.86c0,.33,0,.64,0,.94H240v2.41h-2.93v2.82h-3v-2.82Zm15.29,15.29c2,.47,4.1,1,6.22,1.68l-1.52,2.41a61.09,61.09,0,0,0-9.09-2.43l1-1.66h-6.6l1.41,1.49a32,32,0,0,1-9.38,2.57L227.67,316a37,37,0,0,0,7.22-1.6h-4.51V302.51H242l-2.54-1.64c1.46-1.9,1.74-3.62,1.74-7.43a47.91,47.91,0,0,0,10.14-.92l1.28,2.35a40.14,40.14,0,0,1-8.41.86c0,.31,0,.64,0,.94H253v2.46h-3.38v2.77h-3v-2.77h-2.87a13.77,13.77,0,0,1-1.41,3.38h8.07v11.86Zm.31-9.63H233.56v1.06h13.61Zm0,4.21V307.9H233.56V309Zm-13.61,2.1v1.08h13.61v-1.08Z" transform="translate(-154.5 -36)"/><path class="cls-1" d="M256.3,317.82V293.3h10.64v10.09h-7.33v14.43Zm3.23-20.65H264v-1.38h-4.42Zm0,3.79H264v-1.41h-4.42Zm2.41,14.82V305h11.83v9h-8.63v1.72Zm3.2-4.32h5.42v-3.9h-5.42Zm8.57,6.11L273,314.7h3.46V303.39h-7.77V293.3H279.8v21.54c0,1.85-1,2.73-3.24,2.73Zm-2-20.4h4.86v-1.38H271.7Zm0,3.79h4.86v-1.41H271.7Z" transform="translate(-154.5 -36)"/><path class="cls-1" d="M308.45,307.92v2.33H306.9v4.48h-3.26v-1H297v.94c0,2.21-1.22,3.32-3.43,3.32h-3.76l-.83-2.93h4.75v-1.33h-9.67v-2.27h9.67v-1.21H283v-2.33h10.81v-1.24h-9.67v-2.21h9.67v-1.22h-8.93v-5.47h8.93v-1.22H283.34v-2.43h10.42v-1.58H297v1.58h11.08v2.43H297v1.22h9.37v5.47H297v1.22h9.87v3.45Zm-20.38-6.71h5.69v-1.39h-5.69Zm15.07-1.39H297v1.39h6.11ZM297,306.68v1.24h6.61v-1.24Zm6.61,4.78v-1.21H297v1.21Z" transform="translate(-154.5 -36)"/><path class="cls-1" d="M319.7,311.91a42.83,42.83,0,0,1-8.57,3.4l-.85-3.35c1-.25,2-.55,3-.88V297.17h-2.57V294h8.37v3.15h-2.43v12.69c1-.39,1.91-.77,2.74-1.13Zm11.06,1c1.83.75,4.21,1.8,5.73,2.6l-1.63,2.76c-1.83-1.1-4.62-2.4-6.59-3.34l1.53-2h-5.7l1.58,1.85a24.29,24.29,0,0,1-6.78,3.54l-1.46-2.9a20.38,20.38,0,0,0,5.72-2.49h-2.68V297.86h4.78c.33-.61.61-1.24.89-1.82h-6.39v-2.85h15.81V296h-6.24l-.89,1.82h6.28v15.07Zm.78-12.39h-8v1.52h8Zm-8,5.53h8v-1.52h-8Zm0,2.49v1.69h8v-1.69Z" transform="translate(-154.5 -36)"/><path class="cls-1" d="M348.88,299c4.09-.33,5.94,1.72,5.94,5.75,0,10.73-1.63,12.14-5.28,12.14a32.8,32.8,0,0,1-4-.36l.22-3.34a25.1,25.1,0,0,0,3.1.3c1.88,0,2.49-.72,2.49-9.07,0-1.52-.53-2.37-2.63-2.18l-2,.16a91.82,91.82,0,0,1-4.7,14.74l-3.38-1.33a79.52,79.52,0,0,0,4.56-13.07l-4.23.38-.33-3.26,5.37-.44c.41-1.83.83-3.79,1.21-6l3.29.53c-.36,1.82-.69,3.51-1.05,5.11Zm11.61.58a40.62,40.62,0,0,1,3.15,9.54l-3.54,1a38,38,0,0,0-3.67-10.68l2.21-1c-.58-1-1.19-2-1.8-2.93l2.07-1a41.82,41.82,0,0,1,2.69,4.48Zm2.3-1.05a43.7,43.7,0,0,0-2.66-4.5l2.1-1a39.8,39.8,0,0,1,2.6,4.51Z" transform="translate(-154.5 -36)"/><path class="cls-1" d="M376.81,298.75c4.09-.34,5.94,1.71,5.94,5.75,0,10.72-1.63,12.13-5.28,12.13a32.8,32.8,0,0,1-4-.36l.22-3.37a25.55,25.55,0,0,0,3.1.31c1.88,0,2.46-.7,2.46-9,0-1.52-.5-2.37-2.6-2.18l-1.88.17a90.38,90.38,0,0,1-4.7,14.76l-3.46-1.35a77.22,77.22,0,0,0,4.51-13.08l-4.18.38-.33-3.26,5.31-.44c.42-1.83.83-3.79,1.22-5.94l3.43.52c-.36,1.83-.69,3.51-1,5.12Zm10.59-1.5a42.19,42.19,0,0,1,4.17,11.61l-3.54,1a36.87,36.87,0,0,0-3.95-11.14Z" transform="translate(-154.5 -36)"/><path class="cls-1" d="M404.46,298.75c4.09-.34,6,1.71,6,5.75,0,10.72-1.64,12.13-5.29,12.13a32.8,32.8,0,0,1-4-.36l.22-3.37a25.74,25.74,0,0,0,3.1.31c1.88,0,2.46-.7,2.46-9,0-1.52-.5-2.37-2.6-2.18l-1.88.17a88.49,88.49,0,0,1-4.7,14.76l-3.45-1.35a78.11,78.11,0,0,0,4.5-13.08l-4.17.38-.33-3.26,5.3-.44c.42-1.83.83-3.79,1.22-5.94l3.43.52c-.36,1.83-.69,3.51-1.05,5.12Zm10.59-1.5a41.87,41.87,0,0,1,4.18,11.61l-3.54,1a36.62,36.62,0,0,0-4-11.14Z" transform="translate(-154.5 -36)"/><path class="cls-1" d="M447.1,314.59c-2.24,1.1-3.76,1.71-5.06,1.71-2.24,0-3.43-1.05-3.43-3.43,0-1.54,1.61-9.95,1.61-11.3s-.5-1.86-1.72-1.86c-1.44,0-4.56,2.68-8.16,6.58v10.92h-3.45V310c-.75,1-1.72,2.1-3,3.56l-2.41-2.6c1.53-1.54,3.27-3.56,5.37-6.16v-3.46h-4.67v-3.21h4.67V293.3h3.45v8.18c3-3.07,5.73-5.28,8.49-5.28,3.24,0,5,1.83,5,4.76,0,1.88-1.52,9.87-1.52,11.25,0,.33.22.47.58.47a21.45,21.45,0,0,0,3.48-1.38Z" transform="translate(-154.5 -36)"/><path class="cls-1" d="M470,316.91c-8.88-.41-12.91-3.46-12.91-8.82a8.65,8.65,0,0,1,3.48-7.27,10.88,10.88,0,0,1,3.71-1.47l0-.19c-3.82.25-8.19.53-14.05,1l-.16-3.71c6.27-.36,14.71-.8,23-1.16l.08,3.32a17.05,17.05,0,0,0-6.41,1.1c-2.93,1.05-5.81,4.34-5.81,7.61,0,3.65,2.44,5.5,9.68,6Z" transform="translate(-154.5 -36)"/><path class="cls-1" d="M478.24,299c0-1.54.08-3,.11-3.56l3.79.19c-.06.66-.14,1.91-.17,3.48-.13,8.11,1.39,13,2.55,13,1,0,1.57-1.14,2.18-5.78l3.35.8c-.86,7.33-2.88,9-5.42,9C480.29,316.19,478.24,310.16,478.24,299Zm19.08,12.75c-.28-5.31-1.85-9.84-5-13.35l3.26-2.19c3.51,3.93,5.34,9.21,5.67,15Z" transform="translate(-154.5 -36)"/><path class="cls-1" d="M525.88,316.58a35.3,35.3,0,0,0-6.69-4.18v.34c0,3.2-1.85,4.81-6,4.81-3.76,0-6.13-1.88-6.13-5s2.32-4.84,6.19-4.84a16.53,16.53,0,0,1,2.52.22v-2.49c-2.74,0-5.76,0-8.13-.13l.08-3.21c2.27.11,5.61.14,8,.16v-2.84c-3.57,0-6.45-.09-9.07-.2l.08-3.2c2.46.11,5.78.16,9,.19V293.3h3.42v2.93c2.71,0,5.64-.14,8.19-.36l.14,3.21c-2.69.22-5.51.3-8.33.33v2.85c2.35,0,5.15-.09,7.36-.25l.16,3.23c-2.4.17-5.11.2-7.52.22v3.4a35.14,35.14,0,0,1,8.66,4.7Zm-10.11-5.42a10.58,10.58,0,0,0-2.6-.39c-1.66,0-2.52.69-2.52,1.8s.91,1.77,2.52,1.77,2.6-.47,2.6-1.74Z" transform="translate(-154.5 -36)"/><path class="cls-1" d="M556.63,299.49H548.2v5.25a10.88,10.88,0,0,1,.8,4c0,5.67-3.26,8.58-9.65,8.71l-.69-3.4c4.87-.08,6.67-1.52,7.05-4.06h-.19a3.65,3.65,0,0,1-3.15,1.41c-2.27,0-4.56-1.66-4.56-5s2.24-5.12,4.59-5.12a4.3,4.3,0,0,1,2.18.47h.19v-2.24H532.55v-3.21h12.22V293.1h3.43v3.18h8.43Zm-11.47,6.86a2,2,0,1,0-4,0,2,2,0,0,0,4,0Z" transform="translate(-154.5 -36)"/><path class="cls-1" d="M570.38,298.75c4.09-.34,6,1.71,6,5.75,0,10.72-1.64,12.13-5.29,12.13a32.8,32.8,0,0,1-4-.36l.22-3.37a25.74,25.74,0,0,0,3.1.31c1.88,0,2.46-.7,2.46-9,0-1.52-.5-2.37-2.6-2.18l-1.88.17a88.49,88.49,0,0,1-4.7,14.76l-3.45-1.35a78.11,78.11,0,0,0,4.5-13.08l-4.17.38-.33-3.26,5.3-.44c.42-1.83.83-3.79,1.22-5.94l3.43.52c-.36,1.83-.69,3.51-1,5.12Zm10.59-1.5a41.87,41.87,0,0,1,4.18,11.61l-3.54,1a36.62,36.62,0,0,0-4-11.14Z" transform="translate(-154.5 -36)"/><path class="cls-1" d="M593.69,313a28.89,28.89,0,0,0,5.45.67c4.78,0,7.22-1.08,7.22-3.79,0-2.21-1.77-3.32-5.06-3.32-4,0-6.45,1.94-7.47,3.93l-3.37-.42c.3-3.43.86-7.66,1.44-11.08l3.59.38c-.58,3.1-1,5.81-1.24,8.38l.22,0c1.35-2.77,3.62-4.43,7.68-4.43,4.9,0,8,2.36,8,6.45,0,5-3.35,7.3-10.57,7.3a31.63,31.63,0,0,1-6.24-.64Zm12.61-14.32A85.42,85.42,0,0,0,593.92,297l.69-3.59A96.77,96.77,0,0,1,607,295Z" transform="translate(-154.5 -36)"/><path class="cls-1" d="M614.93,320a9,9,0,0,0,2.71-3.81,2.05,2.05,0,0,1-1.85-2.16v-.55a2.45,2.45,0,0,1,4.87,0V314a7.84,7.84,0,0,1-3,6Z" transform="translate(-154.5 -36)"/><path class="cls-1" d="M663,313.59l.17,3.57c-1.11.11-2.52.19-3.65.19-5.86,0-8.88-1.93-8.88-5.44,0-2.88,2.46-5,5.28-5.64v-.2c-2.93.2-7,.55-12.24,1.16l-.2-3.4,4.48-.36c4.45-2.62,7.33-4.56,9.37-6l-9.67.27-.06-3.29,14.74-.27.05,3a71.54,71.54,0,0,1-8.21,5.89c3.13-.28,7.52-.47,13-.69l.08,3.21a29.92,29.92,0,0,0-7.05.74c-3.62.92-5.81,2.63-5.81,5.09,0,1.71,1.47,2.43,5.09,2.43A29.53,29.53,0,0,0,663,313.59Z" transform="translate(-154.5 -36)"/><path class="cls-1" d="M696,314.59c-2.24,1.1-3.76,1.71-5.06,1.71-2.24,0-3.43-1.05-3.43-3.43,0-1.54,1.61-9.95,1.61-11.3s-.5-1.86-1.72-1.86c-1.44,0-4.56,2.68-8.16,6.58v10.92h-3.45V310c-.75,1-1.72,2.1-3,3.56l-2.4-2.6c1.52-1.54,3.26-3.56,5.36-6.16v-3.46H671.1v-3.21h4.67V293.3h3.45v8.18c3-3.07,5.73-5.28,8.49-5.28,3.24,0,5,1.83,5,4.76,0,1.88-1.52,9.87-1.52,11.25,0,.33.22.47.58.47a21.08,21.08,0,0,0,3.48-1.38Z" transform="translate(-154.5 -36)"/><path class="cls-1" d="M701.24,316.8a46.24,46.24,0,0,1-1-9.15A65.13,65.13,0,0,1,701.79,294l3.65.39a63.68,63.68,0,0,0-1.63,13.3c0,1.32,0,2.4.05,3.18h.2a14.2,14.2,0,0,1,1.16-4.51l2.21,1.21c-1.77,3.65-2.4,5.67-2.4,7.44a11.58,11.58,0,0,0,.08,1.44Zm8.51-11.59,3.38.94a8.61,8.61,0,0,0-1,3.71c0,1.44,1,2.05,3.52,2.05a38.73,38.73,0,0,0,6-.5L722,315a39.48,39.48,0,0,1-6.38.5c-4.79,0-7.14-1.47-7.14-5.28A11.5,11.5,0,0,1,709.75,305.21Zm-.77-7.74a91.89,91.89,0,0,1,12.44-.8v3.49a86.74,86.74,0,0,0-12.08.85Z" transform="translate(-154.5 -36)"/><path class="cls-1" d="M749.9,309.2c0,4.83-3.51,7.82-9.62,8.21l-.83-3.24c4.81-.36,6.86-1.9,6.86-5.08,0-2.13-1.27-3.57-3.62-4.21-1.77,6.94-5.64,11.86-10.87,11.86-3.09,0-5.28-1.93-5.28-5.41,0-3.74,2.54-6.92,6.5-8.6l.08-3.07c-1.6,0-3.73,0-5.53,0l.06-3.21c1.6.06,3.87.09,5.64.09.05-1.17.11-2.27.19-3.35l3.35.17-.25,3.15c3-.06,7.32-.17,11.06-.42l.14,3.18c-3.88.22-8.38.36-11.4.39,0,.72,0,1.44,0,2.13a18.84,18.84,0,0,1,3.34-.31C745.7,301.45,749.9,304.61,749.9,309.2ZM732,313.37a5.38,5.38,0,0,0,2-.41,41.1,41.1,0,0,1-.94-6.69c-1.93,1.21-3.15,2.93-3.15,4.78C729.94,312.6,730.69,313.37,732,313.37Zm7.6-8.85h-.05a12.47,12.47,0,0,0-3.27.42,39.77,39.77,0,0,0,.53,5.72A17.52,17.52,0,0,0,739.59,304.52Z" transform="translate(-154.5 -36)"/><path class="cls-1" d="M777.75,305.8c0,6.77-4.31,10.34-10.59,10.34-.52,0-1.08,0-1.63-.06l-.17-3.54c.45,0,.89.06,1.33.06,4.62,0,7.41-2.38,7.41-6.67,0-3.2-1.33-4.95-4.28-4.95-2.69,0-5.12,1.94-7.75,4.87v11.36h-3.45v-7c-.75.94-1.66,2-2.85,3.4l-2.4-2.6c1.49-1.52,3.2-3.51,5.25-6v-3.6h-4.84v-3.21h4.84V293.3h3.45v7.85c2.3-2.16,4.68-3.68,8-3.68C774.68,297.47,777.75,300.62,777.75,305.8Z" transform="translate(-154.5 -36)"/><path class="cls-1" d="M802.5,312.68l.39,3.4a52.86,52.86,0,0,1-9.46.77c-4.92,0-7-1.6-7-6.11v-7.93c-1.63,0-3.29.11-5,.17l-.14-3.46c1.75-.06,3.43-.11,5.12-.14V294h3.51v5.28c2.46-.06,4.92-.08,7.44-.14l-.08-5.56,3.4-.05c0,1.85.08,3.76.11,5.53,1.66-.06,3.37-.08,5.14-.14l.06,3.35-5.18.13c0,1.75,0,3.24,0,4.26,0,2.63-.88,3.43-3.45,3.43a46.49,46.49,0,0,1-4.73-.39l.11-3.34c2.38.25,3.51.36,4,.36s.63-.11.63-.69c0-1.08,0-2.27,0-3.54l-7.49.22v7.88c0,2.16,1,2.82,3.51,2.82A54.67,54.67,0,0,0,802.5,312.68Z" transform="translate(-154.5 -36)"/><path class="cls-1" d="M829.46,316.91c-8.87-.41-12.91-3.46-12.91-8.82a8.63,8.63,0,0,1,3.49-7.27,10.73,10.73,0,0,1,3.7-1.47l0-.19c-3.81.25-8.18.53-14,1l-.17-3.71c6.28-.36,14.71-.8,23-1.16l.09,3.32a17.07,17.07,0,0,0-6.42,1.1c-2.93,1.05-5.8,4.34-5.8,7.61,0,3.65,2.43,5.5,9.67,6Z" transform="translate(-154.5 -36)"/><path class="cls-1" d="M231.65,342.45a21.08,21.08,0,0,1-2.46,3.26l-2.68-1.91a17.78,17.78,0,0,0,4.2-6.5l3,.67a11.74,11.74,0,0,1-.66,1.85h6.8v2.57a18.7,18.7,0,0,0,2.35-5.06l3,.58a15.79,15.79,0,0,1-.63,1.91h7.88v2.63h-4.31c.38.77.77,1.6,1.16,2.51l-2.82,1c-.53-1.25-1-2.41-1.58-3.51h-1.49c-.36.69-.75,1.38-1.16,2l-2.77-1.54.33-.47h-3.34c.3.6.61,1.27.91,2l-2.82,1c-.42-1-.86-2-1.33-2.95Zm9.68,1.74c1.47,2.15,4.65,3.9,11.39,5.78l-1.16,2.93c-2.18-.67-4-1.3-5.58-1.94v1.11H233.42v-1.16a57.61,57.61,0,0,1-5.53,2l-1.21-3c6.77-1.85,9.48-3.6,10.95-5.75ZM230.08,363v-9.62h19.27V363H246v-1H233.37v1Zm3.29-6.8v3H246v-3Zm9.51-6.83a7.39,7.39,0,0,1-3.26-3.76h-.28a7.45,7.45,0,0,1-3.12,3.76Z" transform="translate(-154.5 -36)"/><path class="cls-1" d="M279,361.5a26.2,26.2,0,0,1-4.62.47c-3.84,0-5.7-1.5-5.64-5,0-1.82-.36-2.27-1-2.27-.86,0-1.66.53-3.49,2-.88.75-4.25,3.79-6.19,5.48l-2.35-2.71,13.24-11.23H258v-3.4H274.4v3l-6.24,5.45.16.16a4.13,4.13,0,0,1,2.38-.83c.77,0,1.49.78,1.49,2.27,0,3.13.2,3.71,2.88,3.71a14.29,14.29,0,0,0,3.81-.56Zm-4.73-18.75c-3.68-.47-8.05-.86-13.25-1l.45-3.57c5.19.22,9.45.61,13.21,1.08Z" transform="translate(-154.5 -36)"/><path class="cls-1" d="M304.82,358.65l.42,3.29a68.81,68.81,0,0,1-8.1.5c-5.59,0-8.16-1.61-8.16-4.84,0-2.68,1.85-5,7.57-6.91-.33-1.19-1.13-1.66-2.62-1.66a8,8,0,0,0-5.09,2.4,29.33,29.33,0,0,0-2.93,3.82l-2.79-1.91a45.91,45.91,0,0,0,5.33-9.1c-1.77,0-3.31-.05-4.81-.11l.11-3.15c1.86.08,3.68.14,5.92.17.36-1,.69-2.13,1.05-3.29l3.57.58c-.28.94-.56,1.85-.86,2.68,3.1-.06,6.8-.2,9.93-.5l.22,3.1c-3.26.3-7.63.49-11.31.55a36,36,0,0,1-2.3,4.65l.2.08c1.52-2,3.29-3,5.14-3a4.45,4.45,0,0,1,4.59,3.71c1.88-.47,4.06-.89,6.58-1.3l.55,3.07q-4.14.7-6.91,1.41c0,1.6,0,2.82-.05,4.53l-3.46.08c.08-1.35.11-2.57.11-3.59-3.15,1.13-4.2,2.27-4.2,3.46,0,1.38,1.05,1.85,4.53,1.85A62.61,62.61,0,0,0,304.82,358.65Z" transform="translate(-154.5 -36)"/><path class="cls-1" d="M333.44,359.48h2.33l-.53,3.07H321.89c-5.15,0-7.28-1.66-7.36-4.21h-.28c0,2.44-1.32,3.68-3.62,4.59l-1-3.2c2.21-.83,3.1-1.5,3.1-3.9v-5.37h-2.66v-3.07H316v8.44a3,3,0,0,0,2,3.09l-.89-1.57a24.93,24.93,0,0,0,5.09-1.66h-5v-2.6h3.9v-1.74h-3.59v-2.6h3.59v-1.36h3v1.36H328v-1.36h3.1v1.36h3.79v2.6h-3.79v1.74h4.18v2.6H330a32.53,32.53,0,0,1,4.79,2Zm-19.35-14a36.91,36.91,0,0,0-4-5.83l2.66-1.91a41.1,41.1,0,0,1,4.12,5.83Zm6.08,1.38c-2.07,0-2.74-.58-2.74-2.29v-3.21h5.06v-1h-5.06V338h7.94v5.31H320.2v.77c0,.36.17.47.58.47h2.85v-1l2.32.55V345c0,1.27-.58,1.82-2.05,1.82Zm1.77,12.64h10.42a37.11,37.11,0,0,0-5-2.19l1.52-1.6h-6l1.49,1.8a23.46,23.46,0,0,1-4.39,1.9A18.68,18.68,0,0,0,321.94,359.48Zm2.21-8.13v1.74H328v-1.74Zm5.09-4.51c-2.07,0-2.74-.58-2.74-2.29v-3.21h5.37v-1H326.5V338h8.3v5.31h-5.53v.77c0,.36.16.47.58.47H333v-1l2.43.55V345c0,1.27-.58,1.82-2.16,1.82Z" transform="translate(-154.5 -36)"/><path class="cls-1" d="M338,361.22c.86-2.79,2.05-6.25,2.93-8.85,1.74-5.14,3.65-9.68,5.45-14.49l3.67,1.22c-1.71,4.12-3.09,7.69-4.7,11.61l.25.06c1.08-1.85,2.3-2.93,4-2.93,2.79,0,4.23,1.71,4.23,6,0,3.29.09,4.45,1.72,4.45s2.71-1.61,3.84-7.69l3.48,1.11c-1.38,7.13-3.54,10.34-7.66,10.34-3.53,0-4.92-1.88-4.92-6.61,0-3.65-.49-4.4-2.24-4.4s-3.12,1.39-4,3.74c-.94,2.57-1.63,4.67-2.49,7.49Z" transform="translate(-154.5 -36)"/><path class="cls-1" d="M380.34,345.24c-1.65.19-3.67.33-5.72.41A93.26,93.26,0,0,1,370.25,362l-3.62-1.22a80.34,80.34,0,0,0,4.29-15c-1.66,0-3.18,0-4.37,0V342.5c1.32,0,3.07,0,4.92,0,.19-1.38.36-2.76.5-4.12l3.62.33c-.11,1.22-.28,2.44-.44,3.68,1.88-.08,3.65-.19,5-.36Zm8.85,12.66.44,3.51a51.3,51.3,0,0,1-6.91.53c-4.81,0-7.08-1.66-7.08-4.73a9.08,9.08,0,0,1,1.19-4.37l3.1,1a7,7,0,0,0-.8,2.79c0,1.3,1.1,1.85,3.7,1.85A38.68,38.68,0,0,0,389.19,357.9Zm-11.53-10.56c4-.53,6.42-.77,10.81-1l.2,3.4a91.79,91.79,0,0,0-10.62,1Zm7.36-2a41.42,41.42,0,0,0-2.41-4.65l2.21-.88a41.32,41.32,0,0,1,2.41,4.64Zm3.51-1.36a45,45,0,0,0-2.43-4.64l2.21-.91a36.3,36.3,0,0,1,2.38,4.64Z" transform="translate(-154.5 -36)"/><path class="cls-1" d="M397,353.78c0-4.78.47-10.45.91-15.51l3.7.19c-.27,2.52-.63,5.62-.74,6.94H401a8.44,8.44,0,0,1,1.27-2.9,7,7,0,0,1,5.56-3.12c4.2,0,7.16,3.48,7.16,9,0,8-4.23,13-13.35,13.85l-.83-3.68c7.32-.8,10.42-4.11,10.42-9.78,0-3.87-1.69-6.09-4.09-6.09-3.07,0-5.28,2.71-6.22,6.42a20.58,20.58,0,0,0-.36,4.67Z" transform="translate(-154.5 -36)"/><path class="cls-1" d="M420.67,365a9.19,9.19,0,0,0,2.71-3.81,2.05,2.05,0,0,1-1.86-2.16v-.55a2.45,2.45,0,0,1,4.87,0V359a7.84,7.84,0,0,1-3,6Z" transform="translate(-154.5 -36)"/><path class="cls-1" d="M462.31,350.6h11.2v2.32H448.35V350.6h10.78v-.88h-9.29v-2.05h9.29v-.88h-8.46v-2h8.46v-.92H448.48v-2.21h10.65v-.91h-8.38v-2.1h8.38v-1.27h3.18v1.27h8.79v3h2.3v2.21h-2.3v2.91h-8.79v.88H472v2.05h-9.7Zm-11.06,12.58v-9.29h19.38v9.29h-3.37v-1H454.57v1Zm16-7.19H454.57V357h12.69Zm-12.69,4.1h12.69V359H454.57Zm7.74-19.33v.91H468v-.91Zm0,3.12v.92H468v-.92Z" transform="translate(-154.5 -36)"/><path class="cls-1" d="M477.55,344c0-1.54.08-3,.11-3.56l3.79.19c-.06.66-.14,1.91-.17,3.48-.14,8.11,1.38,13,2.54,13,1,0,1.58-1.14,2.19-5.78l3.34.8c-.85,7.33-2.87,9-5.42,9C479.59,361.19,477.55,355.16,477.55,344Zm19.08,12.75c-.28-5.31-1.86-9.84-5-13.35l3.27-2.19c3.51,3.93,5.33,9.21,5.66,15Z" transform="translate(-154.5 -36)"/><path class="cls-1" d="M518.89,345c-1.66.2-3.68.33-5.72.42a94.28,94.28,0,0,1-4.37,16.31l-3.63-1.22a80.46,80.46,0,0,0,4.29-15c-1.66,0-3.18,0-4.37,0v-3.27c1.33,0,3.07,0,4.92,0,.2-1.38.36-2.76.5-4.12l3.62.34c-.11,1.21-.27,2.43-.44,3.67,1.88-.08,3.65-.19,5-.36Zm9.29,16.18a51.23,51.23,0,0,1-6.91.52c-4.81,0-7.08-1.66-7.08-4.73a9,9,0,0,1,1.19-4.37l3.09,1a7.12,7.12,0,0,0-.8,2.8c0,1.29,1.11,1.85,3.71,1.85a38.8,38.8,0,0,0,6.36-.56Zm-12-14.08c4-.52,6.41-.77,10.81-1l.19,3.4a92,92,0,0,0-10.62,1.05Z" transform="translate(-154.5 -36)"/><path class="cls-1" d="M535.23,353.78c.06-4.78.47-10.45.92-15.51l3.7.19c-.28,2.52-.64,5.62-.75,6.94h.2a8.44,8.44,0,0,1,1.27-2.9,7,7,0,0,1,5.56-3.12c4.2,0,7.16,3.48,7.16,9,0,8-4.23,13-13.36,13.85l-.83-3.68c7.33-.8,10.43-4.11,10.43-9.78,0-3.87-1.69-6.09-4.09-6.09-3.07,0-5.29,2.71-6.23,6.42a21.17,21.17,0,0,0-.36,4.67Z" transform="translate(-154.5 -36)"/><path class="cls-1" d="M564.57,338.6l3.85.11-.78,14.05c-.22,4.15,1.22,5.61,4.07,5.61,3.62,0,5.94-2.1,7.43-8.4l3.65,1.07c-1.57,7.19-5.25,11-11.06,11-5.47,0-8.26-2.74-7.9-9.46Z" transform="translate(-154.5 -36)"/><path class="cls-1" d="M607.54,361.91c-8.87-.41-12.91-3.46-12.91-8.82a8.63,8.63,0,0,1,3.49-7.27,10.73,10.73,0,0,1,3.7-1.47l0-.19c-3.81.25-8.18.53-14,1l-.17-3.71c6.28-.36,14.71-.8,23-1.16l.09,3.32a17.07,17.07,0,0,0-6.42,1.1c-2.93,1.05-5.8,4.34-5.8,7.61,0,3.65,2.43,5.5,9.67,6Z" transform="translate(-154.5 -36)"/><path class="cls-1" d="M633.46,362.91l-13.14-10a4.15,4.15,0,0,1-2-3.32,4,4,0,0,1,1.85-3.1l11.75-8.68,2.33,3.1L623.09,349a.7.7,0,0,0-.36.63.76.76,0,0,0,.38.61l12.72,9.49Z" transform="translate(-154.5 -36)"/><path class="cls-1" d="M656.88,345.24c-1.66.19-3.68.33-5.73.41A93.23,93.23,0,0,1,646.79,362l-3.63-1.22a80.34,80.34,0,0,0,4.29-15c-1.66,0-3.18,0-4.37,0V342.5c1.33,0,3.07,0,4.92,0,.2-1.38.36-2.76.5-4.12l3.62.33c-.11,1.22-.27,2.44-.44,3.68,1.88-.08,3.65-.19,5-.36Zm8.85,12.66.44,3.51a51.3,51.3,0,0,1-6.91.53c-4.81,0-7.08-1.66-7.08-4.73a9,9,0,0,1,1.19-4.37l3.09,1a7.13,7.13,0,0,0-.8,2.79c0,1.3,1.11,1.85,3.71,1.85A38.77,38.77,0,0,0,665.73,357.9ZM654.2,347.34c4-.53,6.41-.77,10.81-1l.19,3.4a92,92,0,0,0-10.62,1Zm7.35-2a43.11,43.11,0,0,0-2.4-4.65l2.21-.88a43,43,0,0,1,2.4,4.64Zm3.51-1.36a43.13,43.13,0,0,0-2.43-4.64l2.21-.91a35.05,35.05,0,0,1,2.38,4.64Z" transform="translate(-154.5 -36)"/><path class="cls-1" d="M676.38,356.13c0,2,2,2.68,6.52,2.68a38.35,38.35,0,0,0,7.13-.72l.5,3.41a48.33,48.33,0,0,1-8,.69c-6.94,0-9.9-2-9.9-6.09,0-3.76,3-5.8,7.8-5.8a8,8,0,0,1,6.75,3.15l.19-.14a63.29,63.29,0,0,1-3.54-6.83c-4.06.25-7.9.25-11.8.25v-3.4c3.42,0,6.88,0,10.39-.19-.5-1.28-1-2.66-1.52-4.18l3.43-.86c.58,1.75,1.13,3.32,1.74,4.79,2.16-.17,4.34-.44,6.58-.8l.45,3.4c-1.94.3-3.82.52-5.62.72,1.25,2.68,2.55,5.08,3.93,7.6l-2.88,1.74a16.53,16.53,0,0,0-7.55-2C678,353.53,676.38,354.42,676.38,356.13Z" transform="translate(-154.5 -36)"/><path class="cls-1" d="M698.78,344c0-1.54.08-3,.11-3.56l3.78.19c0,.66-.13,1.91-.16,3.48-.14,8.11,1.38,13,2.54,13,1,0,1.58-1.14,2.19-5.78l3.34.8c-.86,7.33-2.87,9-5.42,9C700.82,361.19,698.78,355.16,698.78,344Zm19.07,12.75c-.27-5.31-1.85-9.84-5-13.35l3.26-2.19c3.51,3.93,5.34,9.21,5.67,15Z" transform="translate(-154.5 -36)"/><path class="cls-1" d="M240.19,278.57l1.81.05-.36,6.6c-.11,1.95.57,2.64,1.91,2.64,1.7,0,2.79-1,3.49-3.95l1.72.51c-.74,3.38-2.47,5.18-5.2,5.18-2.57,0-3.89-1.28-3.72-4.44Z" transform="translate(-154.5 -36)"/><path class="cls-1" d="M250.43,281.45a24.54,24.54,0,0,1,7-1.44c2.63,0,4.27,1.5,4.27,3.87,0,3.22-2.22,4.7-7.2,5.17l-.45-1.72c4.35-.42,5.89-1.35,5.85-3.43a2.16,2.16,0,0,0-2.47-2.2,21.58,21.58,0,0,0-6.55,1.47Z" transform="translate(-154.5 -36)"/><path class="cls-1" d="M274.2,283.73a7.54,7.54,0,0,1,.48,2.39c0,2.42-1.35,3.51-4.18,3.51s-4.12-1.14-3.86-3.7l.09-.93a17.84,17.84,0,0,1-2.32-.21l.14-1.52a18,18,0,0,0,2.34.22l.17-1.67c-.87-.05-1.89-.15-2.72-.25l.16-1.48c.83.12,1.86.19,2.72.23l.2-2,1.67.13-.2,1.91c1.21,0,2.62-.07,3.49-.16l.05,1.5c-.79.09-2.41.14-3.69.15l-.17,1.65c1.14,0,2.21-.05,3.17-.11l.05,1.51c-1.17.07-2.35.11-3.38.13l-.1,1c-.15,1.39.47,2,2.19,2s2.49-.51,2.49-1.95a6.27,6.27,0,0,0-.43-2Z" transform="translate(-154.5 -36)"/><path class="cls-1" d="M276.7,289.2c.4-1.31,1-2.94,1.38-4.16.81-2.42,1.71-4.55,2.56-6.81l1.73.57c-.81,1.94-1.46,3.62-2.21,5.46l.11,0c.51-.87,1.08-1.38,1.89-1.38,1.31,0,2,.81,2,2.82,0,1.55,0,2.09.8,2.09s1.28-.75,1.81-3.61l1.64.52c-.65,3.35-1.67,4.86-3.6,4.86-1.67,0-2.32-.88-2.32-3.11,0-1.71-.23-2.06-1.05-2.06s-1.47.65-1.87,1.75-.77,2.2-1.17,3.53Z" transform="translate(-154.5 -36)"/><path class="cls-1" d="M292.08,278.57l1.81.05-.37,6.6c-.1,1.95.58,2.64,1.91,2.64,1.71,0,2.8-1,3.5-3.95l1.72.51c-.74,3.38-2.47,5.18-5.2,5.18-2.58,0-3.89-1.28-3.72-4.44Zm5.43,3.55a17.43,17.43,0,0,0-1.31-2.07l1-.52a22.14,22.14,0,0,1,1.31,2.07Zm1.6-.8a20.1,20.1,0,0,0-1.31-2.06l1-.52a15.84,15.84,0,0,1,1.3,2.06Z" transform="translate(-154.5 -36)"/><path class="cls-1" d="M303.9,286.51a4,4,0,0,1,1.39-2.77l1.41.9a2.74,2.74,0,0,0-1,1.73c0,.79,1,1.23,3.08,1.23a24.19,24.19,0,0,0,4.16-.37l.21,1.71a23.91,23.91,0,0,1-4.37.39C305.42,289.33,303.9,288.3,303.9,286.51Zm1-7c2.64-.13,5.22-.11,7.64,0l0,1.8a70.41,70.41,0,0,0-7.53,0Z" transform="translate(-154.5 -36)"/><path class="cls-1" d="M316.69,282.52a23.28,23.28,0,0,1,5.53-.92c2.34,0,3.7,1.15,3.7,3.3,0,2.66-2,4.05-6.32,4.67l-.46-1.67c3.66-.53,5-1.48,5-3,0-1-.61-1.64-1.9-1.64a21.2,21.2,0,0,0-5.11,1Zm8.11-1.9a43.34,43.34,0,0,0-6.54-.44l.18-1.72a55.91,55.91,0,0,1,6.57.46Z" transform="translate(-154.5 -36)"/><path class="cls-1" d="M228.65,331.51a4,4,0,0,1,1.39-2.77l1.4.9a2.71,2.71,0,0,0-1,1.73c0,.79,1,1.23,3.08,1.23a24.28,24.28,0,0,0,4.16-.37l.21,1.71a24.08,24.08,0,0,1-4.37.39C230.17,334.33,228.65,333.3,228.65,331.51Zm1-7c2.64-.13,5.21-.11,7.63,0l0,1.8a70.41,70.41,0,0,0-7.53,0Z" transform="translate(-154.5 -36)"/><path class="cls-1" d="M247.49,326.56c-.78.09-1.73.15-2.69.19a44,44,0,0,1-2.06,7.67l-1.7-.57a37.78,37.78,0,0,0,2-7.05c-.78,0-1.49,0-2.05,0v-1.53h2.31c.09-.65.17-1.3.24-1.94l1.7.16c-.05.57-.13,1.14-.21,1.73.89,0,1.72-.09,2.34-.17Zm4.37,7.6a23.59,23.59,0,0,1-3.26.25c-2.26,0-3.32-.78-3.32-2.22a4.23,4.23,0,0,1,.56-2.06l1.45.46a3.28,3.28,0,0,0-.37,1.31c0,.61.52.87,1.74.87a18.13,18.13,0,0,0,3-.26Zm-5.63-6.61c1.88-.25,3-.37,5.08-.49l.09,1.6a43,43,0,0,0-5,.5Z" transform="translate(-154.5 -36)"/><path class="cls-1" d="M322.44,334.33a11.61,11.61,0,0,1-2.17.22c-1.81,0-2.68-.7-2.65-2.35,0-.86-.17-1.07-.5-1.07s-.78.25-1.63.94c-.42.35-2,1.78-2.92,2.57l-1.1-1.27,6.23-5.28h-5.14v-1.6h7.74v1.39l-2.94,2.56.08.08a2,2,0,0,1,1.11-.39c.37,0,.71.37.71,1.07,0,1.47.09,1.74,1.35,1.74a6.68,6.68,0,0,0,1.79-.26Zm-2.22-8.81c-1.73-.22-3.79-.41-6.23-.48l.21-1.68c2.44.1,4.44.29,6.21.51Z" transform="translate(-154.5 -36)"/><path class="cls-1" d="M327.07,332.68a13.37,13.37,0,0,0,2.56.31c2.25,0,3.4-.5,3.4-1.78,0-1-.84-1.56-2.38-1.56a3.77,3.77,0,0,0-3.51,1.85l-1.59-.2c.14-1.61.4-3.6.68-5.21l1.69.18c-.28,1.46-.46,2.73-.59,3.94h.11a3.59,3.59,0,0,1,3.61-2.08c2.3,0,3.74,1.11,3.74,3,0,2.33-1.57,3.43-5,3.43a15.47,15.47,0,0,1-2.94-.29ZM333,326a39.7,39.7,0,0,0-5.82-.77l.32-1.69a46.38,46.38,0,0,1,5.81.75Z" transform="translate(-154.5 -36)"/><path class="cls-1" d="M459.61,326c1.93-.16,2.8.8,2.8,2.7,0,5-.77,5.71-2.49,5.71a16.33,16.33,0,0,1-1.87-.17l.11-1.59a11.53,11.53,0,0,0,1.45.14c.89,0,1.16-.32,1.16-4.25,0-.71-.24-1.11-1.22-1l-.89.07a41.09,41.09,0,0,1-2.21,6.95l-1.62-.64a37.28,37.28,0,0,0,2.12-6.15l-2,.18-.15-1.53,2.49-.21c.2-.86.39-1.78.58-2.79l1.61.24c-.17.86-.33,1.65-.5,2.41Zm5-.71a19.6,19.6,0,0,1,2,5.46l-1.66.48A17.21,17.21,0,0,0,463,326Z" transform="translate(-154.5 -36)"/><path class="cls-2" d="M235.85,407.07l3.92,8,8.79,1.27-6.35,6.19,1.49,8.77-7.85-4.15L228,431.27l1.52-8.77-6.36-6.19,8.76-1.27Zm0,3.9-2.44,4.79-.38.85-.86.14-5.34.78,3.82,3.73.63.69-.13.86-.89,5.28,5.59-2.88.83.36,4.75,2.49-.91-5.28-.14-.89.64-.63,3.78-3.71-5.3-.77-.89-.11-.39-.89Z" transform="translate(-154.5 -36)"/><path class="cls-2" d="M259.44,408.93h22.11v3.34c-1.35,3.73-4.47,6.8-8.29,9l-2-2.68c-.11,6.47-3.1,9.73-8.71,12.14l-2.13-3.32c5-2,7-4.15,7-9.21v-3.48h3.82V418a14.17,14.17,0,0,0,6.36-5.51H259.44Z" transform="translate(-154.5 -36)"/><path class="cls-2" d="M309.82,427.48l-2.35,3a60.49,60.49,0,0,0-7.91-6.75,29.08,29.08,0,0,1-11,6.77L286.65,427c8.54-3,13.35-8,15.23-14.35H288.83v-3.6h17.31a17.83,17.83,0,0,1-.78,5A21.25,21.25,0,0,1,302,420.9,74.12,74.12,0,0,1,309.82,427.48Z" transform="translate(-154.5 -36)"/><path class="cls-2" d="M334.59,424a85.69,85.69,0,0,0-10.92-4.84V430.8h-3.81V407.71h3.81v7.41a109.64,109.64,0,0,1,12.64,5.53Z" transform="translate(-154.5 -36)"/><path class="cls-2" d="M342.53,415.06H363.8c-.06,9-5.31,14.13-14.05,15.74l-1.63-3.51c7.1-1.22,10.56-4.12,11.72-8.74H342.53Zm19-6.74v3.48H345.16v-3.48Z" transform="translate(-154.5 -36)"/><path class="cls-2" d="M381.25,421.64c3.34-1.88,5.55-3.67,6.85-5.52L378,417.8v7.72c0,1.27.52,1.71,1.63,1.71h10.7v3.59H379.84c-4.07,0-5.51-1.32-5.51-5.19v-7.22l-5.47.91-.55-3.54,6-.94v-6.55H378v5.94l13.22-2.07.63,3.4c-1.3,3.54-4.39,6.64-8.46,9.1Zm6.22-9.37a37.5,37.5,0,0,0-2.24-4.23l2.15-.88a38.59,38.59,0,0,1,2.24,4.23Zm3.54-1.1a46.57,46.57,0,0,0-2.24-4.21l2.13-.88a32.44,32.44,0,0,1,2.18,4.23Z" transform="translate(-154.5 -36)"/><path class="cls-2" d="M417.91,414a21.27,21.27,0,0,1-7.57,6.66v10.37h-3.71v-8.54a51.79,51.79,0,0,1-8.76,2.85L396.68,422c7.13-1.52,13.71-4.5,17.09-7.71H398.92v-3.46h7.71v-3.67h3.71v3.67h7.57Zm-4.75,5.75a59.05,59.05,0,0,1,7.55,2.74l-1.33,3.35a55.56,55.56,0,0,0-7.6-2.77Z" transform="translate(-154.5 -36)"/><path class="cls-2" d="M436.33,412.05h9.93v2.21a83.84,83.84,0,0,1-.61,11.95c-.53,3-2,4-5,4h-3.54l-.78-3.71H440c1.41,0,2-.3,2.16-1.79s.42-5.37.42-8.3v-.86h-6.34c-.69,7.66-3.87,12-9.26,15.27l-2.32-3.1c4.78-2.85,7.24-6.08,7.85-12.17h-7.13v-3.48h7.3v-4.7h3.7Z" transform="translate(-154.5 -36)"/><path class="cls-2" d="M476,419c0,6.52-3.74,10.56-10.81,11.31l-1-3.54c5.81-.67,8.05-3.1,8.05-7.66,0-3.9-2.22-6.36-6.14-7-1.27,10.92-3.6,16.34-8.05,16.34-3.09,0-6.11-2.27-6.11-7.71,0-7.08,5.23-12.11,12.47-12.11C471.17,408.68,476,413,476,419Zm-13.52-6.86a8.4,8.4,0,0,0-6.92,8.6c0,2.6,1,3.95,2.47,3.95S461.3,421.17,462.44,412.16Z" transform="translate(-154.5 -36)"/><path class="cls-2" d="M481,409.23H502c0,12-3.54,18.44-14.07,21.48l-1.74-3.54c8.6-2.26,11.33-6.49,11.91-14.4H484.78v6.41H481Z" transform="translate(-154.5 -36)"/><path class="cls-2" d="M529.6,410.75c-.41,10.31-6.35,17.56-16.45,20.27l-1.74-3.54c8.35-2.16,12.53-6.78,14-13.25h-8.65a24.47,24.47,0,0,1-6.33,6.36l-2.38-3a21.77,21.77,0,0,0,8.16-10.45l3.64,1a27.69,27.69,0,0,1-1.18,2.63Z" transform="translate(-154.5 -36)"/><path class="cls-2" d="M549.24,416.17h9.54v3.46h-9.54c0,5.39-2.52,9.23-7.6,11.41l-2.08-3.23c4.26-1.82,6-4.29,6-8.18h-10v-3.46h10v-3.9c-2.37.19-4.95.33-7.66.42l-.3-3.46a102.31,102.31,0,0,0,18.25-1.82l1.16,3.34a70.53,70.53,0,0,1-7.77,1.19Z" transform="translate(-154.5 -36)"/><path class="cls-2" d="M572.41,416.28a50.39,50.39,0,0,0-8.18-4.64l2-3.41a63,63,0,0,1,8.44,4.73ZM564.78,426c9.65-1.69,14.19-5.53,17.73-14.22l3.4,2.16c-3.76,9.07-9.43,14-20,16Z" transform="translate(-154.5 -36)"/><path class="cls-2" d="M592.93,430.66a46.94,46.94,0,0,1-1-9.15,65.06,65.06,0,0,1,1.52-13.66l3.65.38a63.09,63.09,0,0,0-1.63,13.3c0,1.33,0,2.41,0,3.18h.19a14.4,14.4,0,0,1,1.17-4.5l2.21,1.21c-1.77,3.65-2.41,5.67-2.41,7.44a13.9,13.9,0,0,0,.08,1.44Zm8.52-11.59,3.37.94a8.68,8.68,0,0,0-1,3.71c0,1.44,1,2,3.51,2a38.57,38.57,0,0,0,6-.49l.39,3.59a39.6,39.6,0,0,1-6.39.5c-4.78,0-7.13-1.47-7.13-5.28A11.36,11.36,0,0,1,601.45,419.07Zm-.77-7.74a91.78,91.78,0,0,1,12.44-.8V414a88.25,88.25,0,0,0-12.08.86Z" transform="translate(-154.5 -36)"/><path class="cls-2" d="M627.33,413.41a29.42,29.42,0,0,1-1.6,8.48c1.22,1.58,2.35,3.24,3.48,5l-2.35,2.29c-.91-1.41-1.77-2.74-2.65-4a33.59,33.59,0,0,1-5,6.39L617,429a25.17,25.17,0,0,0,5.12-6.66,62,62,0,0,0-4.56-5.26l2.24-2.13c1.27,1.36,2.46,2.66,3.59,4a25.77,25.77,0,0,0,.75-5.55h-7v-3.07h4.59v-3.88H625v3.88h4.18v3.07Zm5.26,11.52a41.57,41.57,0,0,0-3.65-7l2.71-1.55a34.55,34.55,0,0,1,4,7.08Zm10-13.57v3.15h-2.82v13.77c0,2.49-.83,3.32-3.32,3.32h-4.06l-1-3.38h5.09V414.51H630v-3.15h6.44v-4.9h3.32v4.9Z" transform="translate(-154.5 -36)"/><path class="cls-2" d="M649.76,411.77V415c0,7.22-.61,12.89-2.54,17l-2.85-3.35c1.44-2.68,2-6.91,2-13.69v-6.24h10.21v-2.27h3.76v2.27h9.87v3.06Zm0,16.79a29.17,29.17,0,0,0,1.94-10.21l3.09.61a37.65,37.65,0,0,1-2,11.45ZM663,418.88a29.6,29.6,0,0,0-7.63-4.29l1.82-2.51a29.93,29.93,0,0,1,7.69,4.17Zm-.2,9.82v-5.42l2.88,1v4.45c0,2-.75,2.93-2.93,2.93h-3.51c-2.52,0-3.26-.88-3.26-3.54V417h3.31v10.92c0,.58.25.81.94.81Zm4.7-10.79a48.82,48.82,0,0,1,2.91,10.56l-3.15,1.36a39.59,39.59,0,0,0-2.66-10.54Z" transform="translate(-154.5 -36)"/><path class="cls-2" d="M678.19,407.46l3.84.11-.77,14.05c-.22,4.14,1.21,5.61,4.06,5.61,3.62,0,5.95-2.1,7.44-8.41l3.65,1.08c-1.58,7.19-5.25,11-11.06,11-5.47,0-8.27-2.73-7.91-9.45Z" transform="translate(-154.5 -36)"/><path class="cls-2" d="M721.77,430.44a35.3,35.3,0,0,0-6.69-4.18v.33c0,3.21-1.86,4.81-6,4.81-3.76,0-6.14-1.88-6.14-5s2.32-4.84,6.19-4.84a16.42,16.42,0,0,1,2.52.22v-2.49c-2.74,0-5.75-.05-8.13-.14l.08-3.2c2.27.11,5.62.14,8,.16v-2.85c-3.57,0-6.44-.08-9.07-.19l.08-3.21c2.46.11,5.78.17,9,.2v-2.93h3.43v2.93c2.71,0,5.64-.14,8.18-.36l.14,3.21c-2.68.22-5.5.3-8.32.33v2.85c2.35,0,5.14-.09,7.35-.25l.17,3.23c-2.41.17-5.12.19-7.52.22v3.4a35.27,35.27,0,0,1,8.65,4.7ZM711.65,425a10.58,10.58,0,0,0-2.6-.39c-1.66,0-2.52.69-2.52,1.8s.92,1.77,2.52,1.77,2.6-.47,2.6-1.74Z" transform="translate(-154.5 -36)"/><path class="cls-2" d="M733.5,407.46l3.84.11-.78,14.05c-.22,4.14,1.22,5.61,4.07,5.61,3.62,0,5.94-2.1,7.44-8.41l3.65,1.08c-1.58,7.19-5.26,11-11.06,11-5.48,0-8.27-2.73-7.91-9.45Z" transform="translate(-154.5 -36)"/><path class="cls-2" d="M770.77,413.82c-1.66.19-3.68.33-5.72.41a94.14,94.14,0,0,1-4.37,16.32l-3.62-1.22a80.43,80.43,0,0,0,4.28-15c-1.66,0-3.18,0-4.37,0v-3.27c1.33,0,3.07,0,4.93,0,.19-1.38.35-2.76.49-4.12l3.63.33c-.12,1.22-.28,2.44-.45,3.68,1.88-.08,3.65-.19,5-.36ZM780.06,430a49.72,49.72,0,0,1-6.91.53c-4.81,0-7.08-1.66-7.08-4.73a9.08,9.08,0,0,1,1.19-4.37l3.1,1a7,7,0,0,0-.81,2.79c0,1.3,1.11,1.86,3.71,1.86a38.71,38.71,0,0,0,6.36-.56Zm-12-14.07c4-.52,6.41-.77,10.81-1l.19,3.4a91.84,91.84,0,0,0-10.61,1.05Z" transform="translate(-154.5 -36)"/><path class="cls-2" d="M795.77,407.07l3.93,8,8.79,1.27-6.36,6.19,1.49,8.77-7.85-4.15-7.88,4.15,1.52-8.77-6.36-6.19,8.77-1.27Zm0,3.9-2.43,4.79-.39.85-.86.14-5.33.78,3.81,3.73.64.69-.14.86-.89,5.28,5.59-2.88.83.36,4.75,2.49-.91-5.28-.14-.89.64-.63,3.79-3.71-5.31-.77-.88-.11-.39-.89Z" transform="translate(-154.5 -36)"/><path class="cls-2" d="M624.22,395.56c-.78.09-1.73.15-2.69.19a43.12,43.12,0,0,1-2,7.67l-1.7-.57a37.78,37.78,0,0,0,2-7.05c-.78,0-1.49,0-2,0v-1.53h2.31c.09-.65.17-1.3.24-1.94l1.7.16c0,.57-.13,1.14-.21,1.73.88,0,1.72-.09,2.34-.17Zm4.37,7.6a23.34,23.34,0,0,1-3.25.25c-2.26,0-3.33-.78-3.33-2.22a4.35,4.35,0,0,1,.56-2.06l1.46.46a3.15,3.15,0,0,0-.38,1.31c0,.61.52.87,1.74.87a18,18,0,0,0,3-.26ZM623,396.55c1.89-.25,3-.37,5.09-.49l.09,1.6a43.14,43.14,0,0,0-5,.5Z" transform="translate(-154.5 -36)"/><path class="cls-2" d="M630.79,395.1c0-.73,0-1.43.06-1.67l1.78.09c0,.31-.07.89-.08,1.63-.07,3.81.65,6.13,1.19,6.13s.75-.54,1-2.72l1.57.38c-.4,3.44-1.35,4.25-2.54,4.25C631.75,403.19,630.79,400.35,630.79,395.1Zm9,6a9.83,9.83,0,0,0-2.36-6.28l1.53-1a11.45,11.45,0,0,1,2.67,7.06Z" transform="translate(-154.5 -36)"/><path class="cls-2" d="M654.34,400.24a3,3,0,0,1-3.25,3.23,5.67,5.67,0,0,1-2.13-.4l.4-1.57a4.68,4.68,0,0,0,1.73.36,1.4,1.4,0,0,0,1.52-1.56c0-1-.9-1.69-2.55-1.69a9.73,9.73,0,0,0-1.84.18v2.28c0,1.77-.78,2.44-2.3,2.44a2.33,2.33,0,0,1-2.46-2.26c0-1.45,1.2-2.81,3.16-3.53V395.9c-1.07,0-2.11,0-2.91,0V394.4c.82,0,1.84,0,2.91,0v-1.95h1.6v1.86c.74,0,1.45-.11,2.08-.2l.15,1.53c-.65.09-1.41.16-2.23.21v1.47a9.77,9.77,0,0,1,1.84-.16C652.65,397.13,654.34,398.46,654.34,400.24Zm-7.72-.91c-1,.47-1.54,1.13-1.54,1.83a.82.82,0,0,0,.89.82c.43,0,.65-.22.65-.85Zm7.28-2.73a19.22,19.22,0,0,0-3.15-2l.93-1.38a19.06,19.06,0,0,1,3.15,1.94Z" transform="translate(-154.5 -36)"/><path class="cls-2" d="M657.18,396.52a23.35,23.35,0,0,1,5.54-.92c2.34,0,3.69,1.15,3.69,3.3,0,2.66-2,4.05-6.32,4.67l-.45-1.67c3.65-.53,5-1.48,5-3,0-1-.62-1.64-1.9-1.64a21.11,21.11,0,0,0-5.11,1Zm8.11-1.9a43.34,43.34,0,0,0-6.54-.44l.18-1.72a55.91,55.91,0,0,1,6.57.46Z" transform="translate(-154.5 -36)"/><path class="cls-2" d="M1024.67,56.57l9.94-9.94a15.42,15.42,0,0,1-2.15.14,13,13,0,0,1-2.1-.14l.26-1.09a15.77,15.77,0,0,0,2.09.12,19.85,19.85,0,0,0,4.11-.43,19.69,19.69,0,0,0-.44,4.11,15.48,15.48,0,0,0,.13,2.08l-1.09.27a13,13,0,0,1-.15-2.1,15.32,15.32,0,0,1,.15-2.15l-10,9.94Z" transform="translate(-154.5 -36)"/><path class="cls-2" d="M1041.54,57.42V44.85h8.4v2.3h-5.87v2.74h5v2.23h-5v3h6v2.3Z" transform="translate(-154.5 -36)"/><path class="cls-2" d="M1052.51,57.42V47.94h2.37l0,1.27a3.87,3.87,0,0,1,1.29-1.06,3.76,3.76,0,0,1,1.69-.41q3.27,0,3.27,3.88v5.8h-2.44V51.8c0-1.36-.57-2-1.71-2a2.08,2.08,0,0,0-1.46.54,1.73,1.73,0,0,0-.58,1.33v5.71Z" transform="translate(-154.5 -36)"/><path class="cls-2" d="M1067.91,61.54a7.44,7.44,0,0,1-2.18-.33,5.41,5.41,0,0,1-1.77-.85l.86-1.78a4.28,4.28,0,0,0,1.32.65,5.49,5.49,0,0,0,1.55.23c1.86,0,2.78-.87,2.78-2.62V56.1a3.3,3.3,0,0,1-1.24,1,3.83,3.83,0,0,1-1.68.39,4.42,4.42,0,0,1-4-2.32,5.2,5.2,0,0,1-.59-2.49,5.36,5.36,0,0,1,.58-2.53,4.43,4.43,0,0,1,1.61-1.74,4.3,4.3,0,0,1,2.3-.63,4.09,4.09,0,0,1,1.77.39,4,4,0,0,1,1.3.92l0-1.11h2.35v8.77a4.68,4.68,0,0,1-1.33,3.58A5.23,5.23,0,0,1,1067.91,61.54Zm.07-6.1a2.46,2.46,0,0,0,1.88-.77,2.88,2.88,0,0,0,.7-2,2.93,2.93,0,0,0-.71-2,2.42,2.42,0,0,0-1.87-.78,2.35,2.35,0,0,0-1.84.79,2.94,2.94,0,0,0-.71,2,2.89,2.89,0,0,0,.71,2A2.4,2.4,0,0,0,1068,55.44Z" transform="translate(-154.5 -36)"/><path class="cls-2" d="M1075.5,57.42V44.13h2.44V57.42Z" transform="translate(-154.5 -36)"/><path class="cls-2" d="M1082,46a1.65,1.65,0,0,1-1.13-.36,1.23,1.23,0,0,1-.4-1,1.28,1.28,0,0,1,.4-1,1.88,1.88,0,0,1,2.24,0,1.31,1.31,0,0,1,.39,1,1.28,1.28,0,0,1-.4,1A1.56,1.56,0,0,1,1082,46Zm-1.23,11.46V47.94h2.46v9.48Z" transform="translate(-154.5 -36)"/><path class="cls-2" d="M1089.2,57.59a5.92,5.92,0,0,1-2.34-.43,4,4,0,0,1-1.65-1.22l1.54-1.31a3.25,3.25,0,0,0,1.22.86,4,4,0,0,0,1.39.26,1.43,1.43,0,0,0,.89-.26.8.8,0,0,0,.34-.7.71.71,0,0,0-.32-.62,5.83,5.83,0,0,0-1.54-.54,5.26,5.26,0,0,1-2.57-1.28,2.51,2.51,0,0,1-.66-1.77,2.32,2.32,0,0,1,.5-1.48,3.3,3.3,0,0,1,1.33-1,4.44,4.44,0,0,1,1.79-.36,5.42,5.42,0,0,1,2.1.4,4.8,4.8,0,0,1,1.66,1.07l-1.33,1.46a4.22,4.22,0,0,0-1.16-.78,2.84,2.84,0,0,0-1.21-.32c-.86,0-1.3.3-1.3.9a.85.85,0,0,0,.4.68,5.86,5.86,0,0,0,1.63.59,5.14,5.14,0,0,1,2.41,1.19,2.32,2.32,0,0,1,.61,1.67,2.56,2.56,0,0,1-.5,1.54,3.23,3.23,0,0,1-1.33,1.07A4.48,4.48,0,0,1,1089.2,57.59Z" transform="translate(-154.5 -36)"/><path class="cls-2" d="M1094.76,57.42V44.13h2.42v5a3.63,3.63,0,0,1,1.29-1,3.77,3.77,0,0,1,1.67-.4q3.27,0,3.27,3.88v5.8H1101V51.8c0-1.36-.57-2-1.71-2a2.08,2.08,0,0,0-1.46.54,1.73,1.73,0,0,0-.58,1.33v5.71Z" transform="translate(-154.5 -36)"/><path class="cls-2" d="M1115.72,57.59a6.52,6.52,0,0,1-3-.63,6,6,0,0,1-2.13-1.84l1.63-1.85a5.32,5.32,0,0,0,1.74,1.66,4.18,4.18,0,0,0,1.9.44,2.66,2.66,0,0,0,1.43-.36,1.1,1.1,0,0,0,.59-1,1.29,1.29,0,0,0-.75-1.16,6.36,6.36,0,0,0-1.91-.65,6.21,6.21,0,0,1-3-1.38,3.4,3.4,0,0,1-1-2.54,3.18,3.18,0,0,1,.62-1.93,4.4,4.4,0,0,1,1.66-1.3,5.54,5.54,0,0,1,2.29-.46,6.17,6.17,0,0,1,2.78.56,4.45,4.45,0,0,1,1.75,1.61l-1.67,1.63a3.37,3.37,0,0,0-2.84-1.58,2.56,2.56,0,0,0-1.44.37,1.17,1.17,0,0,0,.09,2,5.39,5.39,0,0,0,1.71.59,7.61,7.61,0,0,1,3.13,1.32,2.92,2.92,0,0,1,1.16,2.43,3.8,3.8,0,0,1-.6,2.16,3.91,3.91,0,0,1-1.67,1.37A6,6,0,0,1,1115.72,57.59Z" transform="translate(-154.5 -36)"/><path class="cls-2" d="M1125.88,57.59a3.07,3.07,0,0,1-2.45-1,4.12,4.12,0,0,1-.89-2.79V47.94H1125v5.4a2.42,2.42,0,0,0,.49,1.61,1.67,1.67,0,0,0,1.35.58,2,2,0,0,0,1.43-.54,1.82,1.82,0,0,0,.57-1.38V47.94h2.44v9.48h-2.34l0-1.33a3.5,3.5,0,0,1-1.28,1.09A3.67,3.67,0,0,1,1125.88,57.59Z" transform="translate(-154.5 -36)"/><path class="cls-2" d="M1133.83,61.36V47.94h2.37l0,1.15a3.48,3.48,0,0,1,1.27-1,3.88,3.88,0,0,1,1.71-.38,4,4,0,0,1,2.21.63,4.38,4.38,0,0,1,1.52,1.74,6,6,0,0,1,0,5.06,4.47,4.47,0,0,1-1.52,1.75,4.07,4.07,0,0,1-3.84.29,3.74,3.74,0,0,1-1.28-.89v5Zm4.85-5.9a2.26,2.26,0,0,0,1.78-.78,3,3,0,0,0,.68-2,2.94,2.94,0,0,0-.68-2,2.43,2.43,0,0,0-3.56,0,2.93,2.93,0,0,0-.68,2,3,3,0,0,0,.68,2A2.26,2.26,0,0,0,1138.68,55.46Z" transform="translate(-154.5 -36)"/><path class="cls-2" d="M1145.45,61.36V47.94h2.37l0,1.15a3.43,3.43,0,0,1,1.28-1,3.84,3.84,0,0,1,1.7-.38,4,4,0,0,1,2.21.63,4.4,4.4,0,0,1,1.53,1.74,6.09,6.09,0,0,1,0,5.06,4.5,4.5,0,0,1-1.53,1.75,4,4,0,0,1-2.21.64,4.05,4.05,0,0,1-1.63-.35,3.84,3.84,0,0,1-1.28-.89v5Zm4.84-5.9a2.25,2.25,0,0,0,1.78-.78,2.94,2.94,0,0,0,.68-2,2.89,2.89,0,0,0-.68-2,2.25,2.25,0,0,0-1.78-.78,2.22,2.22,0,0,0-1.77.77,2.89,2.89,0,0,0-.69,2,3,3,0,0,0,.69,2A2.23,2.23,0,0,0,1150.29,55.46Z" transform="translate(-154.5 -36)"/><path class="cls-2" d="M1161.46,57.59a5.26,5.26,0,0,1-2.59-.63,4.72,4.72,0,0,1-1.77-1.75,5.29,5.29,0,0,1,0-5.08,4.65,4.65,0,0,1,1.77-1.75,5.16,5.16,0,0,1,2.59-.64,5.08,5.08,0,0,1,2.55.64,4.65,4.65,0,0,1,1.77,1.75,5.29,5.29,0,0,1,0,5.08A4.72,4.72,0,0,1,1164,57,5.18,5.18,0,0,1,1161.46,57.59Zm0-2.13a2.29,2.29,0,0,0,1.29-.37,2.47,2.47,0,0,0,.89-1,3.1,3.1,0,0,0,.31-1.43,3.18,3.18,0,0,0-.31-1.44,2.4,2.4,0,0,0-2.18-1.34,2.41,2.41,0,0,0-1.31.36,2.37,2.37,0,0,0-.9,1,3.18,3.18,0,0,0-.32,1.44,3.11,3.11,0,0,0,.32,1.43,2.49,2.49,0,0,0,.9,1A2.33,2.33,0,0,0,1161.46,55.46Z" transform="translate(-154.5 -36)"/><path class="cls-2" d="M1168.37,57.42V47.94h2.37l0,1.56a3.83,3.83,0,0,1,1.23-1.27,2.92,2.92,0,0,1,1.61-.49,3.64,3.64,0,0,1,.6,0,2,2,0,0,1,.48.11l-.67,2.69a2.21,2.21,0,0,0-.5-.18,3.17,3.17,0,0,0-.61-.07,2,2,0,0,0-1.48.6,2.08,2.08,0,0,0-.6,1.52v5Z" transform="translate(-154.5 -36)"/><path class="cls-2" d="M1177.09,57.42V50.15h-1.79V47.94h1.79V45.51h2.44v2.43h2v2.21h-2v7.27Z" transform="translate(-154.5 -36)"/><path class="cls-2" d="M1187.66,57.59A5.46,5.46,0,0,1,1185,57a4.58,4.58,0,0,1-1.79-1.73,4.92,4.92,0,0,1-.63-2.51,5.17,5.17,0,0,1,.62-2.59,4.59,4.59,0,0,1,1.7-1.77,4.83,4.83,0,0,1,2.5-.65,4.32,4.32,0,0,1,2.29.62,4.19,4.19,0,0,1,1.58,1.68,4.69,4.69,0,0,1,.53,2.42l0,.77H1185a2.53,2.53,0,0,0,1,1.62,3.16,3.16,0,0,0,2,.59,3.34,3.34,0,0,0,1.17-.19,4.56,4.56,0,0,0,1.14-.7l1.19,1.65a5.75,5.75,0,0,1-3.76,1.41Zm-.25-7.75a2.22,2.22,0,0,0-2.44,1.83h4.49V51.6a1.77,1.77,0,0,0-.64-1.27A2.11,2.11,0,0,0,1187.41,49.84Z" transform="translate(-154.5 -36)"/><path class="cls-2" d="M1197.45,57.59a4.1,4.1,0,0,1-2.25-.63,4.46,4.46,0,0,1-1.55-1.75,5.94,5.94,0,0,1,0-5.08,4.4,4.4,0,0,1,1.55-1.75,4.21,4.21,0,0,1,3.89-.3,3.6,3.6,0,0,1,1.26.88V44.13h2.46V57.42h-2.33l0-1.14a3.48,3.48,0,0,1-1.27.94A4,4,0,0,1,1197.45,57.59Zm.54-2a2.23,2.23,0,0,0,1.77-.8,3.52,3.52,0,0,0,0-4.16,2.37,2.37,0,0,0-3.55,0,3.52,3.52,0,0,0,0,4.16A2.22,2.22,0,0,0,1198,55.55Z" transform="translate(-154.5 -36)"/><path class="cls-2" d="M944.89,308.94c0-1.91,1-3.9,2.93-5.8l2.65,1.71c-1.43,1.52-2.13,2.74-2.13,3.82,0,1.79,2.22,2.84,6.83,2.84a49.13,49.13,0,0,0,8.82-.8l.39,3.24a51.19,51.19,0,0,1-9.21.83C948.12,314.78,944.89,312.65,944.89,308.94Zm2-14.73c5.56-.28,11-.25,16.12-.06l-.05,3.4a146.58,146.58,0,0,0-15.93.08Z" transform="translate(-154.5 -36)"/><path class="cls-2" d="M994,303.66c0,6.44-3.73,10.31-10.67,11.12l-.91-3.16c5.89-.69,8.27-3.2,8.24-7.88,0-4.09-2.41-6.63-6.58-7.21-1.25,11-3.57,16.39-7.88,16.39-3,0-5.92-2.32-5.92-7.52,0-7,5.17-12,12.31-12C989.3,293.43,994,297.66,994,303.66Zm-13.13-7.13a8.59,8.59,0,0,0-7.38,8.85c0,2.73,1.13,4.17,2.68,4.17S979.79,305.82,980.89,296.53Z" transform="translate(-154.5 -36)"/><path class="cls-2" d="M1007.69,305.43l-2,1.74-1.6-4.17c-.09-.2-.2-.2-.2.05v13.5h-2.68V303.88h-.25a12,12,0,0,1-2.6,7l-1.57-2.74a18,18,0,0,0,4.12-9.62h-3.46v-2.71h3.76V291h2.68v4.78h3.26v2.71h-3.26v3.1h.17l.66-.5c.61-.44,1-.39,1.36.41Zm8-2.43v3.81h6.55v2.8h-6.55v7h-2.8v-7h-6.3v-2.8h6.3V303Zm4.72-5.37,2.33.92v3.18c0,2.1-.64,2.71-2.69,2.71H1019c-2.1,0-2.77-.67-2.77-2.88v-5.31h-2.71c-.24,4.26-1.66,6.42-5,8.77l-1.44-2.66c2.38-1.6,3.57-3.07,3.79-6.11h-3.1v-2.6h3.15V291h2.63v2.68h5.39v7.5c0,.58.11.69.64.69h.88Z" transform="translate(-154.5 -36)"/><path class="cls-2" d="M1028.4,315.14a47.93,47.93,0,0,1-1-9.05,65.67,65.67,0,0,1,1.52-13.54l3.24.36a62.64,62.64,0,0,0-1.61,13.21c0,1.44,0,2.66.12,3.6h.16a15.77,15.77,0,0,1,1.27-4.79l2.08,1.11c-1.74,3.59-2.38,5.56-2.44,7.35a8.32,8.32,0,0,0,.06,1.41Zm8.43-11.42,3.05.83a8.65,8.65,0,0,0-1.08,3.78c0,1.58,1.1,2.27,3.78,2.27a36.74,36.74,0,0,0,6-.5l.33,3.18a38.25,38.25,0,0,1-6.31.53c-4.67,0-7-1.47-7-5.14A11.76,11.76,0,0,1,1036.83,303.72Zm-.91-7.63a87.25,87.25,0,0,1,12.39-.83v3.12a86.73,86.73,0,0,0-12.06.86Z" transform="translate(-154.5 -36)"/><path class="cls-2" d="M1063.46,294.34a17.62,17.62,0,0,1-1.54,3.07h2.48v16c0,1.88-.77,2.76-2.57,2.76h-2.49l-.71-2.71h3.48v-3.07h-6.3a29.56,29.56,0,0,1-1.36,6.31l-2.16-2.11c1.33-3.17,1.5-7.4,1.5-11.86v-3.34l-.11.08-1.58-1.91a14.11,14.11,0,0,0,4.26-6.69l2.54.31c-.14.41-.25.83-.41,1.24h5Zm-6,.45a16.52,16.52,0,0,1-1.77,2.62h3.45a13.71,13.71,0,0,0,1.47-2.62Zm-1.3,10c0,1.1-.06,2.13-.11,3.09h2v-3.09Zm1.88-4.95h-1.88v2.76H1058Zm4.09,2.76v-2.76h-2v2.76Zm-2,5.28h2v-3.09h-2Zm15.76,8.93c-.08-.66-.19-1.38-.3-2.15a90.07,90.07,0,0,1-10.26,1.6l-.36-2.87c1.77-.14,3.51-.28,5.17-.47v-5.84h-4.37V295.12h4.37v-4.18h2.68v4.18h4.59v11.94h-4.59v5.5c.8-.11,1.58-.24,2.35-.38-.22-1.14-.44-2.24-.69-3.16l2.1-.63a57.29,57.29,0,0,1,1.61,7.71Zm-7.68-12.47h2.07v-6.58h-2.07Zm4.47-6.58v6.58h2.22v-6.58Z" transform="translate(-154.5 -36)"/><path class="cls-2" d="M1103.67,307.75c0,4.84-4,7.77-10.75,7.77-4.51,0-6.92-1.66-6.92-4.53,0-2.46,2.16-4.2,5-4.2,3.09,0,5.28,1.79,6,5.41,2.3-.71,3.49-2.21,3.49-4.36,0-2.82-1.55-4.4-5.2-4.4a15.41,15.41,0,0,0-7.49,1.94,29.36,29.36,0,0,0-4.59,3.2l-1.91-2.4,13.41-10.59-10.37.3-.08-3,15-.34,0,2.8-9.24,7.52.14.16a10.83,10.83,0,0,1,6-2.24C1101,300.81,1103.67,303.58,1103.67,307.75Zm-10.73,5c.47,0,.94,0,1.36-.06-.47-2.35-1.55-3.23-3.26-3.23-1.3,0-2,.58-2,1.52C1089,312.15,1090.07,312.76,1092.94,312.76Z" transform="translate(-154.5 -36)"/><path class="cls-2" d="M1130.11,314.64a76.22,76.22,0,0,1-9.27.61c-7.1,0-10.2-1.94-10.2-6.09,0-2.65,2.13-5.11,6.36-7.16-.8-2.21-1.21-5.06-1.21-10.06h3.48c-.06,4.39.25,7,.83,8.76a56.32,56.32,0,0,1,8.76-2.38l.64,3.07c-10.65,2.22-15.48,5.15-15.48,7.66,0,2.05,1.77,3,6.71,3a62,62,0,0,0,9.07-.71Z" transform="translate(-154.5 -36)"/><path class="cls-2" d="M936.37,391.2h-2.64v7.62H932.1V391.2h-2.62v-1.44h6.89Z" transform="translate(-154.5 -36)"/><path class="cls-2" d="M937.21,395.43c0-2.17,1.21-3.53,3.12-3.53s3.13,1.36,3.13,3.53-1.2,3.55-3.13,3.55S937.21,397.59,937.21,395.43Zm4.59.62v-1.22c0-1.08-.57-1.66-1.47-1.66s-1.46.58-1.46,1.66v1.22c0,1.07.56,1.64,1.46,1.64S941.8,397.12,941.8,396.05Z" transform="translate(-154.5 -36)"/><path class="cls-2" d="M944.9,396.32v-4.26h1.59v4.1c0,1,.35,1.51,1.16,1.51s1.38-.36,1.38-1.13v-4.48h1.58v6.76H949v-1.13H949a1.88,1.88,0,0,1-1.89,1.29C945.68,399,944.9,398,944.9,396.32Z" transform="translate(-154.5 -36)"/><path class="cls-2" d="M952.11,395.43c0-2.17,1.12-3.53,3.11-3.53a2.62,2.62,0,0,1,2.64,1.69l-1.29.59a1.31,1.31,0,0,0-1.35-1c-1,0-1.44.67-1.44,1.65V396c0,1,.48,1.65,1.44,1.65a1.5,1.5,0,0,0,1.47-1.07l1.21.58a2.65,2.65,0,0,1-2.68,1.78C953.23,399,952.11,397.59,952.11,395.43Z" transform="translate(-154.5 -36)"/><path class="cls-2" d="M959.2,398.82v-9.61h1.58v4h.06a1.89,1.89,0,0,1,1.9-1.27c1.39,0,2.17,1,2.17,2.64v4.28h-1.58V394.7c0-1-.36-1.49-1.16-1.49s-1.39.35-1.39,1.11v4.5Z" transform="translate(-154.5 -36)"/><path class="cls-2" d="M969.87,398.82v-9.61h1.58v4h.06a1.87,1.87,0,0,1,1.89-1.27c1.4,0,2.18,1,2.18,2.64v4.28H974V394.7c0-1-.36-1.49-1.16-1.49s-1.38.35-1.38,1.11v4.5Z" transform="translate(-154.5 -36)"/><path class="cls-2" d="M977,395.43c0-2.14,1.16-3.53,3.12-3.53s3.06,1.53,3.06,3.39v.54h-4.53V396a1.54,1.54,0,0,0,1.67,1.7,2.07,2.07,0,0,0,1.76-1l.86.94a3.25,3.25,0,0,1-2.77,1.29C978.19,399,977,397.59,977,395.43Zm1.65-.58h2.87v-.12c0-1-.51-1.64-1.38-1.64a1.5,1.5,0,0,0-1.49,1.66Z" transform="translate(-154.5 -36)"/><path class="cls-2" d="M984.68,398.82v-6.76h1.58v1.37h.07a1.75,1.75,0,0,1,1.81-1.37h.36v1.49H988c-1.11,0-1.71.34-1.71,1.08v4.19Z" transform="translate(-154.5 -36)"/><path class="cls-2" d="M989.28,395.43c0-2.14,1.16-3.53,3.13-3.53s3.05,1.53,3.05,3.39v.54h-4.53V396a1.54,1.54,0,0,0,1.67,1.7,2.07,2.07,0,0,0,1.76-1l.86.94a3.25,3.25,0,0,1-2.77,1.29C990.46,399,989.28,397.59,989.28,395.43Zm1.65-.58h2.87v-.12c0-1-.51-1.64-1.38-1.64a1.5,1.5,0,0,0-1.49,1.66Z" transform="translate(-154.5 -36)"/><path class="cls-2" d="M1002.06,398.82a1.51,1.51,0,0,1-1.67-1.66v-3.84h-1v-1.26h.55c.48,0,.64-.23.64-.7V390.2H1002v1.86h1.38v1.26H1002v4.24h1.28v1.26Z" transform="translate(-154.5 -36)"/><path class="cls-2" d="M1004.37,395.43c0-2.17,1.21-3.53,3.12-3.53s3.13,1.36,3.13,3.53-1.2,3.55-3.13,3.55S1004.37,397.59,1004.37,395.43Zm4.59.62v-1.22c0-1.08-.57-1.66-1.47-1.66s-1.46.58-1.46,1.66v1.22c0,1.07.56,1.64,1.46,1.64S1009,397.12,1009,396.05Z" transform="translate(-154.5 -36)"/><path class="cls-2" d="M1014.6,400a1.27,1.27,0,0,1,1.2-1.31v-.14a1.08,1.08,0,0,1-.86-1.1c0-.69.6-1.05,1.23-1.19v-.06a2,2,0,0,1-1.23-2c0-1.38,1-2.3,2.77-2.3a4,4,0,0,1,1.2.17v-.21a.85.85,0,0,1,.93-1h1v1.22h-1.42v.22a2.08,2.08,0,0,1,1,1.87c0,1.35-1,2.27-2.77,2.27a4.35,4.35,0,0,1-1-.12.73.73,0,0,0-.52.63c0,.35.31.52.9.52h1.78c1.65,0,2.36.71,2.36,1.9,0,1.42-1,2.17-3.51,2.17C1015.45,401.57,1014.6,401,1014.6,400Zm3.56.52c1.08,0,1.59-.29,1.59-.89s-.32-.73-1.19-.73h-2.29a.82.82,0,0,0-.4.74c0,.54.38.88,1.45.88Zm.81-6.2v-.22c0-.72-.44-1.09-1.26-1.09s-1.26.37-1.26,1.09v.22c0,.73.46,1.1,1.26,1.1S1019,395,1019,394.29Z" transform="translate(-154.5 -36)"/><path class="cls-2" d="M1021.78,395.43c0-2.17,1.21-3.53,3.12-3.53s3.13,1.36,3.13,3.53-1.2,3.55-3.13,3.55S1021.78,397.59,1021.78,395.43Zm4.59.62v-1.22c0-1.08-.57-1.66-1.47-1.66s-1.46.58-1.46,1.66v1.22c0,1.07.56,1.64,1.46,1.64S1026.37,397.12,1026.37,396.05Z" transform="translate(-154.5 -36)"/><path class="cls-2" d="M1034.64,398.82a1.51,1.51,0,0,1-1.67-1.66v-3.84h-1v-1.26h.54c.48,0,.64-.23.64-.7V390.2h1.42v1.86h1.39v1.26h-1.39v4.24h1.29v1.26Z" transform="translate(-154.5 -36)"/><path class="cls-2" d="M1037,395.43c0-2.17,1.21-3.53,3.13-3.53s3.12,1.36,3.12,3.53-1.2,3.55-3.12,3.55S1037,397.59,1037,395.43Zm4.6.62v-1.22c0-1.08-.57-1.66-1.47-1.66s-1.46.58-1.46,1.66v1.22c0,1.07.55,1.64,1.46,1.64S1041.55,397.12,1041.55,396.05Z" transform="translate(-154.5 -36)"/><path class="cls-2" d="M1049.81,398.82a1.5,1.5,0,0,1-1.66-1.66v-3.84h-1v-1.26h.54c.49,0,.65-.23.65-.7V390.2h1.42v1.86h1.38v1.26h-1.38v4.24H1051v1.26Z" transform="translate(-154.5 -36)"/><path class="cls-2" d="M1052.58,398.82v-9.61h1.58v4h.06a1.89,1.89,0,0,1,1.9-1.27c1.39,0,2.17,1,2.17,2.64v4.28h-1.58V394.7c0-1-.36-1.49-1.16-1.49s-1.39.35-1.39,1.11v4.5Z" transform="translate(-154.5 -36)"/><path class="cls-2" d="M1059.72,395.43c0-2.14,1.16-3.53,3.13-3.53s3.05,1.53,3.05,3.39v.54h-4.52V396a1.54,1.54,0,0,0,1.67,1.7,2,2,0,0,0,1.75-1l.87.94a3.25,3.25,0,0,1-2.77,1.29C1060.91,399,1059.72,397.59,1059.72,395.43Zm1.66-.58h2.87v-.12c0-1-.51-1.64-1.39-1.64a1.49,1.49,0,0,0-1.48,1.66Z" transform="translate(-154.5 -36)"/><path class="cls-2" d="M1069.87,397.72l1-.94a2.35,2.35,0,0,0,1.86,1c.81,0,1.17-.32,1.17-.83s-.25-.68-.88-.76l-.66-.09c-1.43-.19-2.23-.8-2.23-2s1-2.12,2.53-2.12a3.18,3.18,0,0,1,2.62,1.06l-.94.94a2.21,2.21,0,0,0-1.62-.76c-.74,0-1.07.31-1.07.76s.27.69.92.79l.68.1c1.47.2,2.18.86,2.18,2,0,1.31-1.1,2.2-2.77,2.2A3.38,3.38,0,0,1,1069.87,397.72Z" transform="translate(-154.5 -36)"/><path class="cls-2" d="M1076.85,396.32v-4.26h1.58v4.1c0,1,.36,1.51,1.16,1.51s1.39-.36,1.39-1.13v-4.48h1.58v6.76H1081v-1.13h-.06A1.9,1.9,0,0,1,1079,399C1077.63,399,1076.85,398,1076.85,396.32Z" transform="translate(-154.5 -36)"/><path class="cls-2" d="M1084.51,401.41v-9.35h1.58v1.11h.07a1.88,1.88,0,0,1,1.87-1.27c1.71,0,2.66,1.28,2.66,3.53s-1,3.55-2.66,3.55a2,2,0,0,1-1.89-1.29h-.05v3.72ZM1089,396v-1.15a1.5,1.5,0,0,0-1.51-1.65c-.82,0-1.44.44-1.44,1.11v2.2c0,.72.62,1.15,1.44,1.15A1.51,1.51,0,0,0,1089,396Z" transform="translate(-154.5 -36)"/><path class="cls-2" d="M1092.26,401.41v-9.35h1.58v1.11h.06a1.89,1.89,0,0,1,1.88-1.27c1.71,0,2.66,1.28,2.66,3.53s-1,3.55-2.66,3.55a2,2,0,0,1-1.89-1.29h-.05v3.72Zm4.52-5.4v-1.15a1.49,1.49,0,0,0-1.5-1.65c-.82,0-1.44.44-1.44,1.11v2.2c0,.72.62,1.15,1.44,1.15A1.5,1.5,0,0,0,1096.78,396Z" transform="translate(-154.5 -36)"/><path class="cls-2" d="M1099.55,395.43c0-2.17,1.21-3.53,3.13-3.53s3.12,1.36,3.12,3.53-1.19,3.55-3.12,3.55S1099.55,397.59,1099.55,395.43Zm4.6.62v-1.22c0-1.08-.57-1.66-1.47-1.66s-1.46.58-1.46,1.66v1.22c0,1.07.56,1.64,1.46,1.64S1104.15,397.12,1104.15,396.05Z" transform="translate(-154.5 -36)"/><path class="cls-2" d="M1107.31,398.82v-6.76h1.58v1.37h.06a1.77,1.77,0,0,1,1.82-1.37h.36v1.49h-.53c-1.11,0-1.71.34-1.71,1.08v4.19Z" transform="translate(-154.5 -36)"/><path class="cls-2" d="M1114.4,398.82a1.5,1.5,0,0,1-1.66-1.66v-3.84h-1v-1.26h.54c.49,0,.65-.23.65-.7V390.2h1.42v1.86h1.38v1.26h-1.38v4.24h1.28v1.26Z" transform="translate(-154.5 -36)"/><path class="cls-2" d="M1121.69,398.82l-2.1-9.06h1.63l.93,4.42.57,2.78h0l.65-2.78,1.08-4.42h1.8l1.08,4.42L1128,397h0l.58-2.78.95-4.42h1.57l-2.18,9.06h-1.86l-1.18-4.82-.57-2.44h0l-.59,2.44-1.19,4.82Z" transform="translate(-154.5 -36)"/><path class="cls-2" d="M1132.32,390.19V390c0-.47.28-.81.93-.81s.92.34.92.81v.23c0,.47-.27.8-.92.8S1132.32,390.66,1132.32,390.19Zm.14,8.63v-6.76H1134v6.76Z" transform="translate(-154.5 -36)"/><path class="cls-2" d="M1136,398.82v-9.61h1.58v5.85h.06l.91-1.22,1.59-1.78h1.79l-2.36,2.6,2.59,4.16h-1.9l-1.78-3.08-.9,1v2.09Z" transform="translate(-154.5 -36)"/><path class="cls-2" d="M1143.1,390.19V390c0-.47.28-.81.92-.81s.93.34.93.81v.23c0,.47-.27.8-.93.8S1143.1,390.66,1143.1,390.19Zm.13,8.63v-6.76h1.58v6.76Z" transform="translate(-154.5 -36)"/><path class="cls-2" d="M946.38,406.37h1.5a7.27,7.27,0,0,0-2.3,5.34v1a7.27,7.27,0,0,0,2.3,5.34h-1.5a8.55,8.55,0,0,1,0-11.65Z" transform="translate(-154.5 -36)"/><path class="cls-2" d="M948.49,416.24v-1.31h1.2V408.5h-1.2v-1.32h4v1.32h-1.2v6.43h1.2v1.31Z" transform="translate(-154.5 -36)"/><path class="cls-2" d="M954.55,416.24v-5.5h-1v-1.26h1v-1a1.64,1.64,0,0,1,1.82-1.82h1.16v1.26h-1.38v1.58h1.38v1.26h-1.38v5.5Z" transform="translate(-154.5 -36)"/><path class="cls-2" d="M961.83,418.84v-1.26H963l.34-1-2.44-7.07h1.58l1.24,3.71.41,1.63h.07l.46-1.63,1.22-3.71h1.51l-2.76,8a1.69,1.69,0,0,1-1.87,1.35Z" transform="translate(-154.5 -36)"/><path class="cls-2" d="M968.07,412.86c0-2.18,1.21-3.54,3.13-3.54s3.13,1.36,3.13,3.54-1.2,3.55-3.13,3.55S968.07,415,968.07,412.86Zm4.6.62v-1.23c0-1.07-.57-1.65-1.47-1.65s-1.46.58-1.46,1.65v1.23c0,1.07.56,1.64,1.46,1.64S972.67,414.55,972.67,413.48Z" transform="translate(-154.5 -36)"/><path class="cls-2" d="M975.77,413.75v-4.27h1.58v4.11c0,1,.36,1.5,1.16,1.5s1.39-.35,1.39-1.12v-4.49h1.58v6.76H979.9v-1.12h-.06a1.9,1.9,0,0,1-1.89,1.29C976.55,416.41,975.77,415.43,975.77,413.75Z" transform="translate(-154.5 -36)"/><path class="cls-2" d="M987.68,416.24l-1.86-6.76h1.53l.7,2.85.54,2.32h0l.65-2.32.81-2.85h1.44l.84,2.85.64,2.32h0l.53-2.32.69-2.85h1.49l-1.86,6.76h-1.72l-.89-3-.51-1.85h0l-.49,1.85-.89,3Z" transform="translate(-154.5 -36)"/><path class="cls-2" d="M996.56,414.4c0-1.38,1-2.06,2.9-2.06h1.17v-.52a1.12,1.12,0,0,0-1.29-1.24,1.75,1.75,0,0,0-1.57.88l-.94-.84a2.82,2.82,0,0,1,2.61-1.3c1.8,0,2.78.87,2.78,2.4V415h.68v1.26H1002a1.2,1.2,0,0,1-1.24-1.16h-.07a1.88,1.88,0,0,1-2,1.33A1.94,1.94,0,0,1,996.56,414.4Zm4.07-.18v-.93h-1.1c-.9,0-1.36.31-1.36.88v.22c0,.58.4.87,1.07.87S1000.63,414.88,1000.63,414.22Z" transform="translate(-154.5 -36)"/><path class="cls-2" d="M1004.27,416.24v-6.76h1.58v1.12h.06a1.87,1.87,0,0,1,1.89-1.28c1.4,0,2.18,1,2.18,2.65v4.27h-1.59v-4.11c0-1-.35-1.5-1.16-1.5s-1.38.36-1.38,1.12v4.49Z" transform="translate(-154.5 -36)"/><path class="cls-2" d="M1013.91,416.24a1.5,1.5,0,0,1-1.67-1.65v-3.85h-1v-1.26h.54c.49,0,.65-.22.65-.69v-1.16h1.42v1.85h1.38v1.26h-1.38V415h1.28v1.26Z" transform="translate(-154.5 -36)"/><path class="cls-2" d="M1021.78,416.24a1.5,1.5,0,0,1-1.67-1.65v-3.85h-1v-1.26h.55c.48,0,.64-.22.64-.69v-1.16h1.42v1.85h1.38v1.26h-1.38V415H1023v1.26Z" transform="translate(-154.5 -36)"/><path class="cls-2" d="M1024.09,412.86c0-2.18,1.21-3.54,3.12-3.54s3.13,1.36,3.13,3.54-1.2,3.55-3.13,3.55S1024.09,415,1024.09,412.86Zm4.59.62v-1.23c0-1.07-.56-1.65-1.47-1.65s-1.46.58-1.46,1.65v1.23c0,1.07.56,1.64,1.46,1.64S1028.68,414.55,1028.68,413.48Z" transform="translate(-154.5 -36)"/><path class="cls-2" d="M1034.91,416.24v-9.6h1.58v5.85h.06l.91-1.23,1.59-1.78h1.79l-2.36,2.61,2.59,4.15h-1.9l-1.77-3.07-.91,1v2.08Z" transform="translate(-154.5 -36)"/><path class="cls-2" d="M1042.15,416.24v-6.76h1.58v1.12h.07a1.87,1.87,0,0,1,1.89-1.28c1.39,0,2.17,1,2.17,2.65v4.27h-1.58v-4.11c0-1-.36-1.5-1.16-1.5s-1.39.36-1.39,1.12v4.49Z" transform="translate(-154.5 -36)"/><path class="cls-2" d="M1049.29,412.86c0-2.18,1.22-3.54,3.13-3.54s3.13,1.36,3.13,3.54-1.2,3.55-3.13,3.55S1049.29,415,1049.29,412.86Zm4.6.62v-1.23c0-1.07-.57-1.65-1.47-1.65s-1.46.58-1.46,1.65v1.23c0,1.07.56,1.64,1.46,1.64S1053.89,414.55,1053.89,413.48Z" transform="translate(-154.5 -36)"/><path class="cls-2" d="M1058.24,416.24l-1.86-6.76h1.53l.7,2.85.53,2.32h0l.65-2.32.81-2.85h1.43l.85,2.85.64,2.32h0l.53-2.32.69-2.85h1.48l-1.85,6.76h-1.72l-.89-3-.52-1.85h0l-.5,1.85-.89,3Z" transform="translate(-154.5 -36)"/><path class="cls-2" d="M1070.54,407.62v-.24c0-.47.28-.8.92-.8s.93.33.93.8v.24c0,.47-.27.8-.93.8S1070.54,408.09,1070.54,407.62Zm.13,8.62v-6.76h1.58v6.76Z" transform="translate(-154.5 -36)"/><path class="cls-2" d="M1074.21,416.24v-6.76h1.58v1.12h.06a1.87,1.87,0,0,1,1.89-1.28c1.4,0,2.18,1,2.18,2.65v4.27h-1.59v-4.11c0-1-.35-1.5-1.16-1.5s-1.38.36-1.38,1.12v4.49Z" transform="translate(-154.5 -36)"/><path class="cls-2" d="M1090.89,416.24H1085v-9.06h5.91v1.45h-4.28v2.3h3.8v1.45h-3.8v2.42h4.28Z" transform="translate(-154.5 -36)"/><path class="cls-2" d="M1092.62,416.24v-6.76h1.58v1.12h.06a1.87,1.87,0,0,1,1.89-1.28c1.4,0,2.18,1,2.18,2.65v4.27h-1.58v-4.11c0-1-.36-1.5-1.17-1.5s-1.38.36-1.38,1.12v4.49Z" transform="translate(-154.5 -36)"/><path class="cls-2" d="M1099.62,417.39a1.28,1.28,0,0,1,1.2-1.31V416a1.08,1.08,0,0,1-.85-1.1c0-.69.59-1.05,1.22-1.19v-.06a2.06,2.06,0,0,1-1.22-2c0-1.37,1-2.3,2.77-2.3a3.74,3.74,0,0,1,1.2.18v-.21c0-.65.32-1,.93-1h1.05v1.21h-1.43v.22a2.09,2.09,0,0,1,1,1.87c0,1.36-1,2.28-2.77,2.28a3.79,3.79,0,0,1-1-.13.74.74,0,0,0-.52.63c0,.36.31.52.9.52h1.78c1.64,0,2.36.72,2.36,1.91,0,1.42-1,2.17-3.51,2.17C1100.48,419,1099.62,418.39,1099.62,417.39Zm3.56.52c1.09,0,1.6-.28,1.6-.89s-.32-.73-1.19-.73h-2.3a.86.86,0,0,0-.39.75c0,.54.38.87,1.44.87Zm.82-6.19v-.22c0-.72-.45-1.09-1.26-1.09s-1.26.37-1.26,1.09v.22c0,.73.46,1.1,1.26,1.1S1104,412.45,1104,411.72Z" transform="translate(-154.5 -36)"/><path class="cls-2" d="M1109.75,416.24h-.88a1.42,1.42,0,0,1-1.61-1.57v-8h1.58V415h.91Z" transform="translate(-154.5 -36)"/><path class="cls-2" d="M1110.91,407.62v-.24c0-.47.28-.8.92-.8s.93.33.93.8v.24c0,.47-.27.8-.93.8S1110.91,408.09,1110.91,407.62Zm.13,8.62v-6.76h1.58v6.76Z" transform="translate(-154.5 -36)"/><path class="cls-2" d="M1114,415.14l1-.93a2.37,2.37,0,0,0,1.87,1c.8,0,1.16-.33,1.16-.83s-.25-.68-.88-.77l-.65-.08c-1.44-.19-2.24-.81-2.24-2s1-2.13,2.53-2.13a3.18,3.18,0,0,1,2.62,1.07l-.94.94a2.17,2.17,0,0,0-1.61-.76c-.75,0-1.08.31-1.08.76s.27.69.93.79l.68.09c1.47.2,2.17.87,2.17,2,0,1.3-1.1,2.2-2.77,2.2A3.36,3.36,0,0,1,1114,415.14Z" transform="translate(-154.5 -36)"/><path class="cls-2" d="M1121,416.24v-9.6h1.58v4h.06a1.87,1.87,0,0,1,1.89-1.28c1.4,0,2.18,1,2.18,2.65v4.27h-1.59v-4.11c0-1-.35-1.5-1.16-1.5s-1.38.36-1.38,1.12v4.49Z" transform="translate(-154.5 -36)"/><path class="cls-2" d="M1128.19,418a4,4,0,0,0,1.14-1.66.83.83,0,0,1-.73-.88v-.22a1,1,0,0,1,2,0v.22a3.44,3.44,0,0,1-1.26,2.54Z" transform="translate(-154.5 -36)"/><path class="cls-2" d="M947.19,436.27v-9.36h1.58V428h.06a1.89,1.89,0,0,1,1.88-1.27c1.71,0,2.66,1.29,2.66,3.53s-1,3.55-2.66,3.55a2,2,0,0,1-1.89-1.28h-.05v3.72Zm4.52-5.4v-1.15a1.5,1.5,0,0,0-1.5-1.66c-.82,0-1.44.44-1.44,1.11v2.2c0,.72.62,1.15,1.44,1.15A1.5,1.5,0,0,0,951.71,430.87Z" transform="translate(-154.5 -36)"/><path class="cls-2" d="M957.42,433.67h-.88a1.42,1.42,0,0,1-1.6-1.57v-8h1.58v8.34h.9Z" transform="translate(-154.5 -36)"/><path class="cls-2" d="M963.72,433.67h-5.5V432.4l3.55-4.23h-3.43v-1.26h5.28v1.22l-3.57,4.28h3.67Z" transform="translate(-154.5 -36)"/><path class="cls-2" d="M967.74,431.83c0-1.38,1-2.06,2.9-2.06h1.18v-.52c0-.78-.4-1.24-1.3-1.24a1.74,1.74,0,0,0-1.57.88l-.94-.84a2.82,2.82,0,0,1,2.61-1.3c1.8,0,2.78.86,2.78,2.4v3.26h.68v1.26h-.88a1.2,1.2,0,0,1-1.23-1.16h-.08a1.87,1.87,0,0,1-2,1.32A1.93,1.93,0,0,1,967.74,431.83Zm4.08-.19v-.92h-1.1c-.9,0-1.36.31-1.36.87v.23c0,.58.39.86,1.06.86S971.82,432.31,971.82,431.64Z" transform="translate(-154.5 -36)"/><path class="cls-2" d="M974.86,432.57l1-.94a2.34,2.34,0,0,0,1.86.95c.81,0,1.16-.32,1.16-.83s-.24-.67-.87-.76l-.66-.09c-1.43-.18-2.24-.8-2.24-2s1-2.13,2.54-2.13a3.18,3.18,0,0,1,2.62,1.06l-.94.94a2.2,2.2,0,0,0-1.62-.75c-.74,0-1.08.31-1.08.75s.28.69.93.79l.68.1c1.47.2,2.18.87,2.18,2,0,1.31-1.1,2.2-2.77,2.2A3.36,3.36,0,0,1,974.86,432.57Z" transform="translate(-154.5 -36)"/><path class="cls-2" d="M981.9,433.67v-9.6h1.58v5.84h.06l.91-1.22,1.59-1.78h1.79l-2.36,2.61,2.59,4.15h-1.9l-1.78-3.08-.9,1v2.09Z" transform="translate(-154.5 -36)"/><path class="cls-2" d="M997.15,435.22c-3.16,0-5.12-2.14-5.12-5.34s2-5.42,5.16-5.42a4.6,4.6,0,0,1,4.92,4.91c0,2-.82,3.3-2.35,3.3a1.36,1.36,0,0,1-1.52-1.22h-.06a1.51,1.51,0,0,1-1.52,1.16c-1.18,0-2.11-.93-2.11-2.76s.93-2.73,2.11-2.73a1.4,1.4,0,0,1,1.38,1h.06v-.89h1.23v3.67c0,.54.21.79.63.79.67,0,1.1-.74,1.1-2.14v-.44a3.57,3.57,0,0,0-3.87-3.66,3.93,3.93,0,0,0-4.09,4.14v.58a3.84,3.84,0,0,0,4,4.07H1000v1Zm1-4.64V429a.94.94,0,0,0-1.05-.89,1.13,1.13,0,0,0-1.19,1.26v.91a1.12,1.12,0,0,0,1.19,1.25A1,1,0,0,0,998.1,430.58Z" transform="translate(-154.5 -36)"/><path class="cls-2" d="M1003.87,433.67v-6.76h1.58V428h.06a1.84,1.84,0,0,1,1.83-1.27,1.94,1.94,0,0,1,2,1.37h0a2.08,2.08,0,0,1,2.07-1.37c1.35,0,2.1,1,2.1,2.64v4.28h-1.6v-4.12c0-1-.35-1.49-1.12-1.49a1.15,1.15,0,0,0-1.3,1.11v4.5h-1.59v-4.12c0-1-.36-1.49-1.13-1.49a1.18,1.18,0,0,0-1.31,1.11v4.5Z" transform="translate(-154.5 -36)"/><path class="cls-2" d="M1015.24,425v-.23c0-.47.28-.8.93-.8s.92.33.92.8V425c0,.47-.27.81-.92.81S1015.24,425.51,1015.24,425Zm.14,8.63v-6.76H1017v6.76Z" transform="translate(-154.5 -36)"/><path class="cls-2" d="M1023.92,433.67h-5.5V432.4l3.54-4.23h-3.43v-1.26h5.29v1.22l-3.58,4.28h3.68Z" transform="translate(-154.5 -36)"/><path class="cls-2" d="M1025.36,436.27v-9.36h1.58V428h.06a1.89,1.89,0,0,1,1.88-1.27c1.71,0,2.66,1.29,2.66,3.53s-1,3.55-2.66,3.55a2,2,0,0,1-1.89-1.28h0v3.72Zm4.52-5.4v-1.15a1.5,1.5,0,0,0-1.5-1.66c-.82,0-1.44.44-1.44,1.11v2.2c0,.72.62,1.15,1.44,1.15A1.5,1.5,0,0,0,1029.88,430.87Z" transform="translate(-154.5 -36)"/><path class="cls-2" d="M1033.11,433.67v-9.6h1.58V428h.06a1.88,1.88,0,0,1,1.89-1.27c1.4,0,2.18,1,2.18,2.64v4.28h-1.58v-4.12c0-1-.36-1.49-1.17-1.49s-1.38.36-1.38,1.11v4.5Z" transform="translate(-154.5 -36)"/><path class="cls-2" d="M1040.11,432.57l1-.94a2.37,2.37,0,0,0,1.87.95c.8,0,1.16-.32,1.16-.83s-.25-.67-.88-.76l-.65-.09c-1.44-.18-2.24-.8-2.24-2s1-2.13,2.53-2.13a3.16,3.16,0,0,1,2.62,1.06l-.93.94A2.24,2.24,0,0,0,1043,428c-.75,0-1.08.31-1.08.75s.27.69.93.79l.68.1c1.47.2,2.17.87,2.17,2,0,1.31-1.1,2.2-2.77,2.2A3.38,3.38,0,0,1,1040.11,432.57Z" transform="translate(-154.5 -36)"/><path class="cls-2" d="M1046.7,430.28c0-2.13,1.16-3.53,3.13-3.53s3.05,1.53,3.05,3.4v.53h-4.52v.19a1.53,1.53,0,0,0,1.66,1.69,2.09,2.09,0,0,0,1.76-.95l.86.94a3.24,3.24,0,0,1-2.76,1.28C1047.89,433.83,1046.7,432.45,1046.7,430.28Zm1.66-.58h2.86v-.12c0-1-.5-1.63-1.38-1.63a1.49,1.49,0,0,0-1.48,1.65Z" transform="translate(-154.5 -36)"/><path class="cls-2" d="M1053.78,432.57l1-.94a2.35,2.35,0,0,0,1.87.95c.8,0,1.16-.32,1.16-.83s-.25-.67-.88-.76l-.66-.09c-1.43-.18-2.23-.8-2.23-2s1-2.13,2.53-2.13a3.18,3.18,0,0,1,2.62,1.06l-.94.94a2.2,2.2,0,0,0-1.62-.75c-.74,0-1.07.31-1.07.75s.27.69.92.79l.68.1c1.48.2,2.18.87,2.18,2,0,1.31-1.1,2.2-2.77,2.2A3.38,3.38,0,0,1,1053.78,432.57Z" transform="translate(-154.5 -36)"/><path class="cls-2" d="M1063.43,430.28c0-2.17,1.21-3.53,3.13-3.53s3.13,1.36,3.13,3.53-1.2,3.55-3.13,3.55S1063.43,432.45,1063.43,430.28Zm4.6.62v-1.22c0-1.08-.57-1.66-1.47-1.66s-1.46.58-1.46,1.66v1.22c0,1.08.56,1.65,1.46,1.65S1068,432,1068,430.9Z" transform="translate(-154.5 -36)"/><path class="cls-2" d="M1071.19,433.67v-6.76h1.58V428h.06a1.9,1.9,0,0,1,1.9-1.27c1.39,0,2.17,1,2.17,2.64v4.28h-1.58v-4.12c0-1-.36-1.49-1.16-1.49s-1.39.36-1.39,1.11v4.5Z" transform="translate(-154.5 -36)"/><path class="cls-2" d="M1088.08,426.06h-2.63v7.61h-1.63v-7.61h-2.62v-1.45h6.88Z" transform="translate(-154.5 -36)"/><path class="cls-2" d="M1090.57,433.67l-1.87-6.76h1.53l.71,2.84.53,2.33h0l.64-2.33.82-2.84h1.43l.84,2.84.64,2.33h0l.54-2.33.69-2.84h1.48l-1.85,6.76h-1.72l-.89-3-.52-1.85h0l-.49,1.85-.89,3Z" transform="translate(-154.5 -36)"/><path class="cls-2" d="M1099.8,425v-.23c0-.47.28-.8.92-.8s.93.33.93.8V425c0,.47-.27.81-.93.81S1099.8,425.51,1099.8,425Zm.13,8.63v-6.76h1.59v6.76Z" transform="translate(-154.5 -36)"/><path class="cls-2" d="M1105.51,433.67a1.5,1.5,0,0,1-1.67-1.66v-3.84h-1v-1.26h.55c.48,0,.64-.22.64-.69v-1.16h1.42v1.85h1.38v1.26h-1.38v4.24h1.29v1.26Z" transform="translate(-154.5 -36)"/><path class="cls-2" d="M1110.31,433.67a1.5,1.5,0,0,1-1.66-1.66v-3.84h-1v-1.26h.54c.49,0,.65-.22.65-.69v-1.16h1.42v1.85h1.38v1.26h-1.38v4.24h1.28v1.26Z" transform="translate(-154.5 -36)"/><path class="cls-2" d="M1112.62,430.28c0-2.13,1.17-3.53,3.13-3.53s3,1.53,3,3.4v.53h-4.52v.19a1.54,1.54,0,0,0,1.67,1.69,2.06,2.06,0,0,0,1.75-.95l.87.94a3.24,3.24,0,0,1-2.77,1.28C1113.81,433.83,1112.62,432.45,1112.62,430.28Zm1.66-.58h2.87v-.12c0-1-.51-1.63-1.39-1.63a1.49,1.49,0,0,0-1.48,1.65Z" transform="translate(-154.5 -36)"/><path class="cls-2" d="M1120.3,433.67v-6.76h1.58v1.37h.06a1.77,1.77,0,0,1,1.82-1.37h.36v1.5h-.54c-1.11,0-1.7.33-1.7,1.07v4.19Z" transform="translate(-154.5 -36)"/><path class="cls-2" d="M1125.78,435.45h-1.49a7.31,7.31,0,0,0,2.3-5.34v-1a7.31,7.31,0,0,0-2.3-5.33h1.49a8.53,8.53,0,0,1,0,11.65Z" transform="translate(-154.5 -36)"/><path class="cls-2" d="M966.56,326.94V330H961.7v1.3c0,7.88-3.43,11.55-10.65,13.63l-1.43-3c6.58-1.88,8.79-4.37,8.79-10.57V330h-7.83v6.3h-3.29V330h-4.83v-3.1h4.83v-5h3.29v5h7.83v-5.17h3.29v5.17Z" transform="translate(-154.5 -36)"/><path class="cls-2" d="M976.8,331.83a36.69,36.69,0,0,1-4,10.26l-3.07-1.63a29.84,29.84,0,0,0,3.93-9.46Zm18.72-8.76a3.31,3.31,0,0,1-3.15,3.43V329h-8.85v12.85c0,2.1-.94,3.1-3.18,3.1h-3.51l-.78-3h4.21V329h-9.63v-3.07h9.6v-4.26h3.29v4.26h6.22a3.3,3.3,0,0,1-1.44-2.85,3.61,3.61,0,0,1,7.22,0ZM989.91,331a41.59,41.59,0,0,0,4,9.49l-3,1.6a55.56,55.56,0,0,1-4.17-10.17Zm3.73-8.18c0-.91-.64-1.47-1.74-1.47s-1.72.56-1.72,1.47v.47c0,.94.64,1.49,1.72,1.49s1.74-.55,1.74-1.49Z" transform="translate(-154.5 -36)"/><path class="cls-2" d="M998.76,335v-3.38h22.12V335Z" transform="translate(-154.5 -36)"/><path class="cls-2" d="M1046.48,337.89a88.64,88.64,0,0,0-11.22-4.95v11.89h-3.4v-23h3.4v7.47A115.71,115.71,0,0,1,1048,334.9Z" transform="translate(-154.5 -36)"/><path class="cls-2" d="M1063.66,343.78l-4.7-20.27h3.65l2.07,9.9,1.27,6.22h.09l1.46-6.22,2.41-9.9h4l2.41,9.9,1.44,6.22h.08l1.3-6.22,2.13-9.9h3.51l-4.87,20.27h-4.17L1073.14,333l-1.27-5.45h0l-1.33,5.45-2.66,10.78Z" transform="translate(-154.5 -36)"/><path class="cls-2" d="M1087.44,324.48V324c0-1.05.64-1.79,2.08-1.79s2.07.74,2.07,1.79v.53c0,1-.61,1.8-2.07,1.8S1087.44,325.53,1087.44,324.48Zm.31,19.3V328.65h3.54v15.13Z" transform="translate(-154.5 -36)"/><path class="cls-2" d="M1095.66,343.78V322.29h3.53v13.08h.14l2-2.73,3.57-4h4l-5.28,5.84,5.77,9.29h-4.23l-4-6.89-2,2.22v4.67Z" transform="translate(-154.5 -36)"/><path class="cls-2" d="M1111.56,324.48V324c0-1.05.63-1.79,2.07-1.79s2.07.74,2.07,1.79v.53c0,1-.61,1.8-2.07,1.8S1111.56,325.53,1111.56,324.48Zm.3,19.3V328.65h3.54v15.13Z" transform="translate(-154.5 -36)"/><path class="cls-2" d="M1129.25,344.64a47.87,47.87,0,0,1-1-9.05,65.67,65.67,0,0,1,1.52-13.54l3.23.36a63.22,63.22,0,0,0-1.6,13.21c0,1.44,0,2.66.11,3.6h.16a15.51,15.51,0,0,1,1.28-4.79l2.07,1.11c-1.74,3.59-2.38,5.56-2.43,7.35a8.31,8.31,0,0,0,0,1.41Zm8.44-11.42,3,.83a8.65,8.65,0,0,0-1.08,3.78c0,1.58,1.11,2.27,3.79,2.27a36.62,36.62,0,0,0,6-.5l.33,3.18a38.13,38.13,0,0,1-6.3.53c-4.68,0-7-1.47-7-5.14A11.61,11.61,0,0,1,1137.69,333.22Zm-.92-7.63a87.35,87.35,0,0,1,12.39-.83v3.12a86.59,86.59,0,0,0-12.05.86Z" transform="translate(-154.5 -36)"/><path class="cls-2" d="M967.23,362.58v1.82c-2.35,5.86-7.61,9.13-14.85,11.2L951.22,373a29.94,29.94,0,0,0,6.83-2.54c-.78-.83-1.55-1.6-2.32-2.27l2-1.71a22,22,0,0,1,2.65,2.46,12.13,12.13,0,0,0,3.43-4h-5.39a22,22,0,0,1-5.78,3.62l-.91-1.91-1.69,1.77-1.58-4.18c-.08-.22-.19-.16-.19.09V375.6h-2.52V364.71h-.27A10.29,10.29,0,0,1,943,371l-1.44-2.91c2.63-3.18,3.66-5.86,3.93-8.15h-3.79v-2.69h4.1v-3c-1.14.25-2.19.42-3.13.58l-.75-2.46A30,30,0,0,0,950.2,350l1.38,2.21a14.69,14.69,0,0,1-3.29,1.32v3.65h3.18v2.69h-3.18v2.84h.14l.72-.66c.52-.52.88-.19,1.16.42L951.8,366a16.7,16.7,0,0,0,6.58-4.64,32.58,32.58,0,0,1-6.25,2.32l-1-2.46a28.5,28.5,0,0,0,6.08-2.16c-.69-.66-1.35-1.24-2-1.82l1.93-1.6a18.79,18.79,0,0,1,2.43,2,12.63,12.63,0,0,0,3.24-3.37h-5a22.23,22.23,0,0,1-5.39,3.59l-1.3-2.35c3.18-1.43,5.42-3.18,6.75-5.53l2.76.58c-.22.45-.47.89-.74,1.33h6.38v1.77a16.19,16.19,0,0,1-6.11,6.64l1.63.55a14,14,0,0,1-1.1,1.66Z" transform="translate(-154.5 -36)"/><path class="cls-2" d="M989,354.89h5.37c0,9.82-.06,13.27-.44,16.51-.31,2.46-1.19,3.73-3.85,3.73h-1.9l-.72-2.87h2c1.33,0,1.6-.42,1.8-1.86a108.42,108.42,0,0,0,.44-12.66H989c-.05,6.88-1,12.91-3.7,17.75l-2-2.13,0,.61a137.26,137.26,0,0,1-13.94,1l-.22-2.43c2,0,4.09-.14,6.14-.25v-1.66h-5.56v-2.26h5.56V367h-5v-8.82h5v-1.32h-5.81v-2.3h5.81v-1.3c-1.58.09-3.15.14-4.67.17l-.42-2.24a64.36,64.36,0,0,0,11.45-1l1.19,2.15a41.64,41.64,0,0,1-5,.75v1.49h5.83v2.3h-5.83v1.32H983V367h-5.11v1.39h5.39v2.26h-5.39v1.5c1.82-.14,3.59-.31,5.34-.5l0,1c2-3.54,3-7.94,3-14.85H984.4v-2.85h1.83v-4.78H989Zm-16.31,5.23v1.44h2.63v-1.44Zm0,4.89h2.63v-1.55h-2.63Zm7.94-4.89h-2.74v1.44h2.74Zm0,4.89v-1.55h-2.74V365Z" transform="translate(-154.5 -36)"/><path class="cls-2" d="M1003,351.1l3.43.09-.77,14.13c-.22,4.17,1.3,5.75,4.31,5.75,3.76,0,6.2-2.27,7.69-8.57l3.26,1c-1.57,7.08-5.2,10.9-10.92,10.9-5.31,0-8.07-2.71-7.74-9.18Z" transform="translate(-154.5 -36)"/><path class="cls-2" d="M1046.59,373.83a35.06,35.06,0,0,0-7-4.28v.63c0,3.13-1.85,4.67-5.83,4.67-3.65,0-6-1.85-6-4.83s2.24-4.7,6-4.7a13.6,13.6,0,0,1,2.68.27v-2.85c-2.76,0-5.83-.08-8.23-.16l0-2.85c2.32.11,5.72.17,8.18.17v-3.16c-3.53,0-6.49-.08-9.18-.19l.09-2.87c2.51.11,5.89.19,9.09.22v-3.07h3.07v3.07c2.74-.06,5.78-.14,8.35-.39l.14,2.87c-2.71.23-5.61.31-8.49.36v3.16c2.41,0,5.26-.11,7.55-.28l.14,2.88c-2.46.16-5.23.22-7.69.24v3.68a36.52,36.52,0,0,1,8.8,4.73Zm-10.12-5.36a10.65,10.65,0,0,0-2.76-.42c-1.85,0-2.77.75-2.77,2s1,2,2.74,2,2.79-.53,2.79-1.94Z" transform="translate(-154.5 -36)"/><path class="cls-2" d="M1077.1,356.77h-8.52v5.39a11.28,11.28,0,0,1,.75,4c0,5.59-3.21,8.41-9.41,8.6l-.6-3.07c4.92-.11,6.8-1.68,7.1-4.62h-.19a3.65,3.65,0,0,1-3.26,1.64c-2.27,0-4.48-1.66-4.48-4.93s2.15-5,4.5-5a3.76,3.76,0,0,1,2.33.66h.19v-2.68h-12.33V353.9h12.33v-3.24h3.07v3.24h8.52Zm-11.26,7a2.16,2.16,0,1,0-4.31,0,2,2,0,0,0,2.13,2.15A2,2,0,0,0,1065.84,363.74Z" transform="translate(-154.5 -36)"/></svg>